G04 #@! TF.GenerationSoftware,KiCad,Pcbnew,8.99.0-3458-gcd40f6046b*
G04 #@! TF.CreationDate,2025-06-29T19:21:04+05:30*
G04 #@! TF.ProjectId,solder,736f6c64-6572-42e6-9b69-6361645f7063,rev?*
G04 #@! TF.SameCoordinates,Original*
G04 #@! TF.FileFunction,Legend,Top*
G04 #@! TF.FilePolarity,Positive*
%FSLAX46Y46*%
G04 Gerber Fmt 4.6, Leading zero omitted, Abs format (unit mm)*
G04 Created by KiCad (PCBNEW 8.99.0-3458-gcd40f6046b) date 2025-06-29 19:21:04*
%MOMM*%
%LPD*%
G01*
G04 APERTURE LIST*
%ADD10C,0.150000*%
%ADD11C,0.120000*%
%ADD12C,0.000000*%
%ADD13R,1.800000X1.800000*%
%ADD14C,1.800000*%
%ADD15O,1.600000X1.600000*%
%ADD16C,1.600000*%
%ADD17C,2.000000*%
G04 APERTURE END LIST*
D10*
X220876905Y-77139819D02*
X220876905Y-76139819D01*
X220876905Y-76139819D02*
X221115000Y-76139819D01*
X221115000Y-76139819D02*
X221257857Y-76187438D01*
X221257857Y-76187438D02*
X221353095Y-76282676D01*
X221353095Y-76282676D02*
X221400714Y-76377914D01*
X221400714Y-76377914D02*
X221448333Y-76568390D01*
X221448333Y-76568390D02*
X221448333Y-76711247D01*
X221448333Y-76711247D02*
X221400714Y-76901723D01*
X221400714Y-76901723D02*
X221353095Y-76996961D01*
X221353095Y-76996961D02*
X221257857Y-77092200D01*
X221257857Y-77092200D02*
X221115000Y-77139819D01*
X221115000Y-77139819D02*
X220876905Y-77139819D01*
X221781667Y-76139819D02*
X222400714Y-76139819D01*
X222400714Y-76139819D02*
X222067381Y-76520771D01*
X222067381Y-76520771D02*
X222210238Y-76520771D01*
X222210238Y-76520771D02*
X222305476Y-76568390D01*
X222305476Y-76568390D02*
X222353095Y-76616009D01*
X222353095Y-76616009D02*
X222400714Y-76711247D01*
X222400714Y-76711247D02*
X222400714Y-76949342D01*
X222400714Y-76949342D02*
X222353095Y-77044580D01*
X222353095Y-77044580D02*
X222305476Y-77092200D01*
X222305476Y-77092200D02*
X222210238Y-77139819D01*
X222210238Y-77139819D02*
X221924524Y-77139819D01*
X221924524Y-77139819D02*
X221829286Y-77092200D01*
X221829286Y-77092200D02*
X221781667Y-77044580D01*
X197386905Y-92044819D02*
X197386905Y-91044819D01*
X197386905Y-91044819D02*
X197625000Y-91044819D01*
X197625000Y-91044819D02*
X197767857Y-91092438D01*
X197767857Y-91092438D02*
X197863095Y-91187676D01*
X197863095Y-91187676D02*
X197910714Y-91282914D01*
X197910714Y-91282914D02*
X197958333Y-91473390D01*
X197958333Y-91473390D02*
X197958333Y-91616247D01*
X197958333Y-91616247D02*
X197910714Y-91806723D01*
X197910714Y-91806723D02*
X197863095Y-91901961D01*
X197863095Y-91901961D02*
X197767857Y-91997200D01*
X197767857Y-91997200D02*
X197625000Y-92044819D01*
X197625000Y-92044819D02*
X197386905Y-92044819D01*
X198910714Y-92044819D02*
X198339286Y-92044819D01*
X198625000Y-92044819D02*
X198625000Y-91044819D01*
X198625000Y-91044819D02*
X198529762Y-91187676D01*
X198529762Y-91187676D02*
X198434524Y-91282914D01*
X198434524Y-91282914D02*
X198339286Y-91330533D01*
X213256905Y-94284819D02*
X213256905Y-93284819D01*
X213256905Y-93284819D02*
X213495000Y-93284819D01*
X213495000Y-93284819D02*
X213637857Y-93332438D01*
X213637857Y-93332438D02*
X213733095Y-93427676D01*
X213733095Y-93427676D02*
X213780714Y-93522914D01*
X213780714Y-93522914D02*
X213828333Y-93713390D01*
X213828333Y-93713390D02*
X213828333Y-93856247D01*
X213828333Y-93856247D02*
X213780714Y-94046723D01*
X213780714Y-94046723D02*
X213733095Y-94141961D01*
X213733095Y-94141961D02*
X213637857Y-94237200D01*
X213637857Y-94237200D02*
X213495000Y-94284819D01*
X213495000Y-94284819D02*
X213256905Y-94284819D01*
X214733095Y-93284819D02*
X214256905Y-93284819D01*
X214256905Y-93284819D02*
X214209286Y-93761009D01*
X214209286Y-93761009D02*
X214256905Y-93713390D01*
X214256905Y-93713390D02*
X214352143Y-93665771D01*
X214352143Y-93665771D02*
X214590238Y-93665771D01*
X214590238Y-93665771D02*
X214685476Y-93713390D01*
X214685476Y-93713390D02*
X214733095Y-93761009D01*
X214733095Y-93761009D02*
X214780714Y-93856247D01*
X214780714Y-93856247D02*
X214780714Y-94094342D01*
X214780714Y-94094342D02*
X214733095Y-94189580D01*
X214733095Y-94189580D02*
X214685476Y-94237200D01*
X214685476Y-94237200D02*
X214590238Y-94284819D01*
X214590238Y-94284819D02*
X214352143Y-94284819D01*
X214352143Y-94284819D02*
X214256905Y-94237200D01*
X214256905Y-94237200D02*
X214209286Y-94189580D01*
D11*
G04 #@! TO.C,D3*
X219055000Y-79100000D02*
X219055000Y-82190000D01*
X219055000Y-79100170D02*
G75*
G02*
X224605000Y-80644952I2560000J-1544830D01*
G01*
X224605000Y-80645048D02*
G75*
G02*
X219055000Y-82189830I-2990000J48D01*
G01*
X224115000Y-80645000D02*
G75*
G02*
X219115000Y-80645000I-2500000J0D01*
G01*
X219115000Y-80645000D02*
G75*
G02*
X224115000Y-80645000I2500000J0D01*
G01*
D12*
G04 #@! TO.C,G\u002A\u002A\u002A*
G36*
X196755046Y-82000550D02*
G01*
X197443766Y-82042365D01*
X198064706Y-82118660D01*
X198485183Y-82207167D01*
X199585515Y-82598212D01*
X200604153Y-83138490D01*
X201526798Y-83811814D01*
X202339150Y-84601998D01*
X203026911Y-85492853D01*
X203575781Y-86468192D01*
X203971461Y-87511829D01*
X204199652Y-88607577D01*
X204209099Y-88686839D01*
X204251930Y-89545968D01*
X204203864Y-90465529D01*
X204072334Y-91362257D01*
X203912954Y-92004176D01*
X203490655Y-93089094D01*
X202919339Y-94102857D01*
X202217447Y-95027032D01*
X201403420Y-95843182D01*
X200495700Y-96532874D01*
X199512727Y-97077673D01*
X198472943Y-97459144D01*
X198449672Y-97465533D01*
X198065201Y-97540900D01*
X197558389Y-97599710D01*
X196988561Y-97639190D01*
X196415037Y-97656572D01*
X195897140Y-97649084D01*
X195494192Y-97613956D01*
X195445636Y-97605822D01*
X194269578Y-97299169D01*
X193177852Y-96827042D01*
X192173389Y-96191298D01*
X191259123Y-95393796D01*
X190437985Y-94436394D01*
X190432695Y-94429297D01*
X189857740Y-93524952D01*
X189428384Y-92541233D01*
X189217062Y-91835031D01*
X189134837Y-91481184D01*
X189081925Y-91161086D01*
X189054580Y-90822769D01*
X189049056Y-90414264D01*
X189061608Y-89883601D01*
X189066436Y-89744938D01*
X189163133Y-88574832D01*
X189371674Y-87525779D01*
X189704270Y-86561667D01*
X189811663Y-86352022D01*
X195713514Y-86352022D01*
X195802874Y-86987729D01*
X196042031Y-87608810D01*
X196415729Y-88162288D01*
X196743153Y-88457351D01*
X197175709Y-88721699D01*
X197656123Y-88930993D01*
X198127121Y-89060895D01*
X198531430Y-89087066D01*
X198578223Y-89081257D01*
X198791153Y-89048103D01*
X199078449Y-89002955D01*
X199136465Y-88993796D01*
X199716063Y-88812375D01*
X200241381Y-88477325D01*
X200688544Y-88018595D01*
X201033683Y-87466136D01*
X201252924Y-86849898D01*
X201322912Y-86250677D01*
X201253105Y-85579141D01*
X201033222Y-84992149D01*
X200647566Y-84452423D01*
X200500538Y-84297482D01*
X200013023Y-83882772D01*
X199511476Y-83619871D01*
X198942174Y-83486964D01*
X198436949Y-83459468D01*
X197759517Y-83541916D01*
X197161435Y-83773648D01*
X196652768Y-84131249D01*
X196243578Y-84591302D01*
X195943930Y-85130393D01*
X195763887Y-85725105D01*
X195713514Y-86352022D01*
X189811663Y-86352022D01*
X190173133Y-85646388D01*
X190731482Y-84821539D01*
X191354896Y-84115639D01*
X192104566Y-83467943D01*
X192937627Y-82906400D01*
X193811211Y-82458957D01*
X194682452Y-82153563D01*
X194904903Y-82100536D01*
X195423343Y-82027781D01*
X196060814Y-81995070D01*
X196755046Y-82000550D01*
G37*
G36*
X179315779Y-68971530D02*
G01*
X179350530Y-69122197D01*
X179342631Y-69177783D01*
X179298166Y-69410384D01*
X180946478Y-69410384D01*
X183493353Y-69485905D01*
X186115392Y-69713325D01*
X188436831Y-70030507D01*
X189153351Y-70150650D01*
X189700946Y-70258628D01*
X190095993Y-70359308D01*
X190354867Y-70457557D01*
X190493943Y-70558241D01*
X190530238Y-70652678D01*
X190482275Y-70770342D01*
X190348713Y-71017640D01*
X190145042Y-71367978D01*
X189886750Y-71794762D01*
X189589329Y-72271399D01*
X189565575Y-72308891D01*
X188317830Y-74336544D01*
X187196974Y-76284062D01*
X186206553Y-78144424D01*
X185350114Y-79910613D01*
X184631205Y-81575608D01*
X184053373Y-83132391D01*
X183972958Y-83374929D01*
X183783046Y-83936515D01*
X183627246Y-84331427D01*
X183491987Y-84572860D01*
X183363702Y-84674007D01*
X183228820Y-84648065D01*
X183073775Y-84508226D01*
X182956438Y-84363401D01*
X182798763Y-84131818D01*
X182572985Y-83766617D01*
X182296913Y-83299242D01*
X181988362Y-82761132D01*
X181665142Y-82183730D01*
X181345066Y-81598477D01*
X181045945Y-81036816D01*
X180790919Y-80540803D01*
X180023181Y-78881227D01*
X179407615Y-77253050D01*
X178927961Y-75608577D01*
X178613696Y-74155439D01*
X178519366Y-73588179D01*
X178455099Y-73049891D01*
X178416019Y-72479700D01*
X178397252Y-71816729D01*
X178393887Y-71410750D01*
X178393245Y-70828823D01*
X178398261Y-70400687D01*
X178412482Y-70094063D01*
X178439454Y-69876675D01*
X178482724Y-69716245D01*
X178545838Y-69580495D01*
X178606136Y-69478987D01*
X178809104Y-69210158D01*
X179015047Y-69027787D01*
X179193945Y-68944152D01*
X179315779Y-68971530D01*
G37*
G36*
X196875662Y-80902703D02*
G01*
X197705375Y-80981875D01*
X198428380Y-81110205D01*
X198485183Y-81123906D01*
X199724272Y-81524757D01*
X200890826Y-82090310D01*
X201970078Y-82808378D01*
X202947258Y-83666776D01*
X203807599Y-84653318D01*
X204536332Y-85755817D01*
X204867611Y-86390238D01*
X205235005Y-87241103D01*
X205494042Y-88048469D01*
X205660747Y-88878924D01*
X205751146Y-89799054D01*
X205766669Y-90125824D01*
X205742435Y-91523407D01*
X205558565Y-92829549D01*
X205210871Y-94055091D01*
X204695164Y-95210875D01*
X204007257Y-96307742D01*
X203142960Y-97356536D01*
X202858900Y-97653063D01*
X202024164Y-98399596D01*
X201076306Y-99078167D01*
X200062096Y-99661447D01*
X199028300Y-100122104D01*
X198159542Y-100399278D01*
X197569767Y-100513603D01*
X196868097Y-100593674D01*
X196114591Y-100637339D01*
X195369307Y-100642444D01*
X194692303Y-100606837D01*
X194205329Y-100541016D01*
X192978377Y-100209162D01*
X191812687Y-99704789D01*
X190717342Y-99033991D01*
X189701419Y-98202863D01*
X188773999Y-97217497D01*
X188261455Y-96551487D01*
X187573227Y-95433678D01*
X187037463Y-94235658D01*
X186656175Y-92979481D01*
X186431377Y-91687200D01*
X186392164Y-90914502D01*
X187305547Y-90914502D01*
X187429511Y-92108417D01*
X187674615Y-93282212D01*
X188030525Y-94375618D01*
X188156035Y-94675959D01*
X188484401Y-95309980D01*
X188922121Y-95996959D01*
X189428764Y-96679438D01*
X189963903Y-97299960D01*
X190106341Y-97447719D01*
X191061153Y-98294098D01*
X192074160Y-98963737D01*
X193145270Y-99456604D01*
X194274388Y-99772668D01*
X195461423Y-99911897D01*
X196706281Y-99874259D01*
X197094181Y-99828032D01*
X198314256Y-99569427D01*
X199471106Y-99140457D01*
X200569791Y-98538407D01*
X201615373Y-97760558D01*
X202494621Y-96929475D01*
X203281988Y-96017869D01*
X203907334Y-95087428D01*
X204393526Y-94098297D01*
X204763434Y-93010622D01*
X204781887Y-92943360D01*
X204894434Y-92378790D01*
X204969928Y-91687438D01*
X205007914Y-90923833D01*
X205007938Y-90142506D01*
X204969545Y-89397985D01*
X204892279Y-88744801D01*
X204819866Y-88390604D01*
X204446771Y-87233002D01*
X203938875Y-86180962D01*
X203277806Y-85201259D01*
X202658298Y-84481060D01*
X201708887Y-83596536D01*
X200669036Y-82856413D01*
X199560327Y-82273954D01*
X198404340Y-81862423D01*
X198392142Y-81859087D01*
X197814050Y-81744466D01*
X197107918Y-81671223D01*
X196327133Y-81639364D01*
X195525078Y-81648897D01*
X194755139Y-81699829D01*
X194070701Y-81792168D01*
X193758610Y-81858461D01*
X192565521Y-82247335D01*
X191470110Y-82788679D01*
X190481506Y-83471300D01*
X189608837Y-84284006D01*
X188861233Y-85215605D01*
X188247824Y-86254905D01*
X187777736Y-87390713D01*
X187460101Y-88611839D01*
X187313061Y-89760734D01*
X187305547Y-90914502D01*
X186392164Y-90914502D01*
X186365083Y-90380871D01*
X186459307Y-89082547D01*
X186716062Y-87814282D01*
X187137363Y-86598130D01*
X187316639Y-86204157D01*
X187762594Y-85388860D01*
X188286173Y-84641513D01*
X188924024Y-83913832D01*
X189438691Y-83408451D01*
X190460949Y-82578219D01*
X191581028Y-81905036D01*
X192791392Y-81392572D01*
X194084505Y-81044493D01*
X194420752Y-80983437D01*
X195165904Y-80901152D01*
X196006690Y-80875018D01*
X196875662Y-80902703D01*
G37*
G36*
X216476340Y-91922504D02*
G01*
X216710018Y-92179814D01*
X216915172Y-92588646D01*
X217090456Y-93132623D01*
X217234527Y-93795367D01*
X217346041Y-94560499D01*
X217423653Y-95411643D01*
X217466019Y-96332419D01*
X217471795Y-97306451D01*
X217439636Y-98317360D01*
X217368199Y-99348768D01*
X217256139Y-100384298D01*
X217102112Y-101407571D01*
X217032565Y-101788406D01*
X216792757Y-102805252D01*
X216496697Y-103656236D01*
X216146369Y-104338942D01*
X215743756Y-104850952D01*
X215290844Y-105189850D01*
X214789616Y-105353219D01*
X214242057Y-105338642D01*
X214136188Y-105316331D01*
X213791958Y-105213565D01*
X213493174Y-105066938D01*
X213195880Y-104846412D01*
X212856121Y-104521950D01*
X212641055Y-104294607D01*
X212160181Y-103688431D01*
X211681073Y-102918054D01*
X211213461Y-102005190D01*
X210767075Y-100971548D01*
X210351642Y-99838840D01*
X209976893Y-98628775D01*
X209790420Y-97933297D01*
X209559839Y-96953909D01*
X209394623Y-96096617D01*
X209295446Y-95370468D01*
X209262985Y-94784509D01*
X209297913Y-94347787D01*
X209400907Y-94069350D01*
X209495580Y-93982068D01*
X209641607Y-93929849D01*
X209928694Y-93846218D01*
X210316743Y-93742269D01*
X210765652Y-93629098D01*
X210813022Y-93617537D01*
X212062492Y-93293870D01*
X213179369Y-92963998D01*
X214146995Y-92633277D01*
X214948711Y-92307059D01*
X215082072Y-92245478D01*
X215476273Y-92070915D01*
X215834664Y-91932961D01*
X216107931Y-91849558D01*
X216215480Y-91833095D01*
X216476340Y-91922504D01*
G37*
G36*
X199580664Y-102321272D02*
G01*
X199828560Y-102408280D01*
X200201317Y-102570917D01*
X200366140Y-102647080D01*
X200711472Y-102794918D01*
X201197853Y-102984639D01*
X201788633Y-103202913D01*
X202447161Y-103436410D01*
X203136787Y-103671797D01*
X203631737Y-103834878D01*
X204595843Y-104153767D01*
X205395257Y-104433316D01*
X206045560Y-104680309D01*
X206562333Y-104901529D01*
X206961157Y-105103758D01*
X207257614Y-105293780D01*
X207467285Y-105478379D01*
X207505187Y-105521158D01*
X207750103Y-105933791D01*
X207820926Y-106370116D01*
X207726968Y-106822376D01*
X207477542Y-107282814D01*
X207081959Y-107743676D01*
X206549531Y-108197204D01*
X205889570Y-108635642D01*
X205111386Y-109051234D01*
X204224294Y-109436224D01*
X203237603Y-109782856D01*
X202160626Y-110083374D01*
X201974194Y-110128153D01*
X201253519Y-110266314D01*
X200485697Y-110359791D01*
X199721371Y-110406193D01*
X199011184Y-110403128D01*
X198405779Y-110348204D01*
X198185977Y-110307068D01*
X197467955Y-110088685D01*
X196839396Y-109789320D01*
X196334722Y-109428020D01*
X196060676Y-109131190D01*
X195874041Y-108792524D01*
X195857503Y-108491950D01*
X196009495Y-108195748D01*
X196016772Y-108186412D01*
X196216448Y-108004283D01*
X196477817Y-107911956D01*
X196832740Y-107906128D01*
X197313074Y-107983493D01*
X197520370Y-108030487D01*
X198529527Y-108211483D01*
X199587427Y-108279466D01*
X200719701Y-108233679D01*
X201951978Y-108073365D01*
X202997637Y-107868643D01*
X203567335Y-107727432D01*
X204175887Y-107549719D01*
X204793563Y-107346993D01*
X205390637Y-107130747D01*
X205937380Y-106912471D01*
X206404064Y-106703657D01*
X206760961Y-106515796D01*
X206978344Y-106360379D01*
X207016307Y-106315240D01*
X207045238Y-106191776D01*
X206971936Y-106056820D01*
X206784987Y-105904496D01*
X206472980Y-105728924D01*
X206024501Y-105524227D01*
X205428139Y-105284526D01*
X204672479Y-105003944D01*
X204021080Y-104772511D01*
X202809734Y-104332997D01*
X201777221Y-103926135D01*
X200924440Y-103552333D01*
X200252293Y-103211998D01*
X199761680Y-102905534D01*
X199593186Y-102772553D01*
X199381891Y-102570701D01*
X199304248Y-102438711D01*
X199340105Y-102341703D01*
X199342697Y-102338996D01*
X199428439Y-102301107D01*
X199580664Y-102321272D01*
G37*
G36*
X217488415Y-54084570D02*
G01*
X217814989Y-54179761D01*
X218121127Y-54370841D01*
X218459911Y-54684345D01*
X218568931Y-54798833D01*
X218957379Y-55300885D01*
X219350679Y-55976634D01*
X219744511Y-56813924D01*
X220134558Y-57800597D01*
X220516501Y-58924497D01*
X220886021Y-60173466D01*
X221238801Y-61535349D01*
X221570520Y-62997987D01*
X221693705Y-63595366D01*
X221939534Y-64911408D01*
X222138808Y-66169540D01*
X222289801Y-67350498D01*
X222390787Y-68435019D01*
X222440041Y-69403842D01*
X222435837Y-70237702D01*
X222376450Y-70917337D01*
X222359223Y-71024939D01*
X222248365Y-71661530D01*
X223345895Y-72792283D01*
X224109502Y-73599954D01*
X224761380Y-74339146D01*
X225337735Y-75054261D01*
X225874769Y-75789698D01*
X226278151Y-76388406D01*
X227309548Y-78132534D01*
X228173427Y-79954171D01*
X228871873Y-81858368D01*
X229406970Y-83850175D01*
X229462556Y-84105947D01*
X229552561Y-84521188D01*
X229630686Y-84863641D01*
X229688108Y-85095781D01*
X229715022Y-85179619D01*
X229813691Y-85175190D01*
X230051879Y-85137274D01*
X230387513Y-85073015D01*
X230584084Y-85032094D01*
X231147075Y-84931686D01*
X231724329Y-84862970D01*
X232267633Y-84828900D01*
X232728773Y-84832431D01*
X233059536Y-84876518D01*
X233071219Y-84879681D01*
X233341953Y-85046040D01*
X233517933Y-85357331D01*
X233601047Y-85799469D01*
X233593185Y-86358371D01*
X233496235Y-87019953D01*
X233312087Y-87770130D01*
X233042629Y-88594819D01*
X232689751Y-89479934D01*
X232356998Y-90204890D01*
X231973968Y-90934672D01*
X231497656Y-91747219D01*
X230961564Y-92589090D01*
X230399194Y-93406847D01*
X230063456Y-93863221D01*
X229849917Y-94161418D01*
X229689854Y-94415640D01*
X229610961Y-94580944D01*
X229607161Y-94603716D01*
X229580961Y-94835632D01*
X229508228Y-95210735D01*
X229397757Y-95694551D01*
X229258346Y-96252601D01*
X229098791Y-96850411D01*
X228927889Y-97453504D01*
X228754437Y-98027404D01*
X228653525Y-98341199D01*
X228030723Y-99984301D01*
X227256874Y-101622963D01*
X226357415Y-103211452D01*
X225357783Y-104704037D01*
X224510755Y-105789139D01*
X223378940Y-107042767D01*
X222121616Y-108264021D01*
X220787640Y-109409435D01*
X219425874Y-110435542D01*
X218848931Y-110826003D01*
X218462641Y-111083719D01*
X218218641Y-111262616D01*
X218099145Y-111378760D01*
X218086369Y-111448213D01*
X218128616Y-111476607D01*
X218282833Y-111530199D01*
X218572425Y-111626222D01*
X218955382Y-111750884D01*
X219372729Y-111884981D01*
X220442244Y-112265968D01*
X221507377Y-112719230D01*
X222525247Y-113223197D01*
X223452974Y-113756301D01*
X224247678Y-114296973D01*
X224397347Y-114412377D01*
X225119944Y-115049322D01*
X225724737Y-115717746D01*
X226197320Y-116396517D01*
X226523284Y-117064507D01*
X226688221Y-117700584D01*
X226697649Y-117785955D01*
X226715146Y-118105036D01*
X226683253Y-118316346D01*
X226583713Y-118495572D01*
X226501738Y-118598151D01*
X226115330Y-118914430D01*
X225577801Y-119126994D01*
X224893037Y-119235076D01*
X224064925Y-119237913D01*
X223502029Y-119188914D01*
X221584377Y-118880435D01*
X219638330Y-118398524D01*
X217684002Y-117749398D01*
X215741503Y-116939272D01*
X215117294Y-116639397D01*
X216992245Y-116639397D01*
X217030549Y-116714045D01*
X217146146Y-116790334D01*
X217365727Y-116882403D01*
X217715982Y-117004391D01*
X218089156Y-117126840D01*
X219168466Y-117456352D01*
X220282377Y-117758460D01*
X221343578Y-118009936D01*
X221652216Y-118074796D01*
X222202247Y-118168482D01*
X222813623Y-118243085D01*
X223447423Y-118296843D01*
X224064727Y-118327996D01*
X224626614Y-118334781D01*
X225094163Y-118315437D01*
X225428452Y-118268203D01*
X225495702Y-118248762D01*
X225730015Y-118125697D01*
X225835673Y-117947637D01*
X225815448Y-117687998D01*
X225672112Y-117320193D01*
X225606445Y-117186609D01*
X225298964Y-116683136D01*
X224872192Y-116125582D01*
X224365813Y-115556581D01*
X223819505Y-115018770D01*
X223272951Y-114554785D01*
X222925167Y-114305654D01*
X222513230Y-114101987D01*
X221988293Y-113935883D01*
X221422472Y-113826004D01*
X220934610Y-113790604D01*
X220193305Y-113871606D01*
X219458800Y-114100180D01*
X218761901Y-114454679D01*
X218133416Y-114913455D01*
X217604152Y-115454860D01*
X217204914Y-116057245D01*
X217004544Y-116552248D01*
X216992245Y-116639397D01*
X215117294Y-116639397D01*
X214872587Y-116521838D01*
X214146587Y-116142468D01*
X213557241Y-115794515D01*
X213064758Y-115450300D01*
X212629344Y-115082142D01*
X212233083Y-114685823D01*
X211658587Y-114071685D01*
X210700822Y-114297556D01*
X210050592Y-114440307D01*
X209305740Y-114586700D01*
X208529091Y-114725692D01*
X207783469Y-114846241D01*
X207131699Y-114937303D01*
X206921102Y-114961943D01*
X206603317Y-115001629D01*
X206433881Y-115045151D01*
X206375624Y-115110835D01*
X206391379Y-115217007D01*
X206393017Y-115222333D01*
X206506016Y-115798718D01*
X206477078Y-116315532D01*
X206366403Y-116635186D01*
X206197407Y-116918899D01*
X205989681Y-117163925D01*
X205717188Y-117387450D01*
X205353895Y-117606658D01*
X204873767Y-117838735D01*
X204250769Y-118100865D01*
X203987248Y-118205605D01*
X202617757Y-118687528D01*
X201130244Y-119109408D01*
X199587137Y-119456629D01*
X198050863Y-119714574D01*
X197043058Y-119831422D01*
X196500405Y-119870168D01*
X195852541Y-119897885D01*
X195135046Y-119914806D01*
X194383497Y-119921165D01*
X193633473Y-119917195D01*
X192920552Y-119903127D01*
X192280313Y-119879195D01*
X191748333Y-119845631D01*
X191360192Y-119802669D01*
X191308073Y-119793905D01*
X190717712Y-119673366D01*
X190257801Y-119543816D01*
X189872976Y-119386355D01*
X189507868Y-119182083D01*
X189498394Y-119176137D01*
X189136485Y-118892107D01*
X188932144Y-118574475D01*
X188857380Y-118175704D01*
X188855512Y-118084295D01*
X188914262Y-117807499D01*
X189785915Y-117807499D01*
X189811234Y-118035191D01*
X189916642Y-118201879D01*
X190146322Y-118377276D01*
X190147514Y-118378065D01*
X190635692Y-118626142D01*
X191267812Y-118828945D01*
X192004788Y-118974760D01*
X192242545Y-119005880D01*
X192627492Y-119033518D01*
X193157941Y-119047699D01*
X193793860Y-119049250D01*
X194495220Y-119038997D01*
X195221990Y-119017765D01*
X195934140Y-118986380D01*
X196591640Y-118945669D01*
X197054993Y-118906587D01*
X197574249Y-118851147D01*
X198139583Y-118783126D01*
X198719959Y-118707118D01*
X199284342Y-118627717D01*
X199801696Y-118549518D01*
X200240986Y-118477115D01*
X200571176Y-118415103D01*
X200761229Y-118368075D01*
X200792457Y-118353318D01*
X200784269Y-118242641D01*
X200659373Y-118034471D01*
X200439992Y-117755109D01*
X200148349Y-117430853D01*
X199806667Y-117088003D01*
X199447711Y-116761916D01*
X198442011Y-115980438D01*
X197447274Y-115378747D01*
X196453784Y-114951702D01*
X195586209Y-114718883D01*
X195261164Y-114664729D01*
X195007590Y-114657909D01*
X194744818Y-114705020D01*
X194392179Y-114812657D01*
X194376685Y-114817778D01*
X193375077Y-115186055D01*
X192435326Y-115603351D01*
X191588003Y-116053371D01*
X190863680Y-116519822D01*
X190292927Y-116986411D01*
X190274377Y-117004216D01*
X190009697Y-117275120D01*
X189860196Y-117478492D01*
X189796032Y-117663405D01*
X189785915Y-117807499D01*
X188914262Y-117807499D01*
X188937857Y-117696331D01*
X189172943Y-117256368D01*
X189542847Y-116786564D01*
X190029644Y-116309080D01*
X190615411Y-115846074D01*
X190731550Y-115764902D01*
X191118013Y-115526651D01*
X191624775Y-115251857D01*
X192197024Y-114966928D01*
X192779949Y-114698271D01*
X193318740Y-114472295D01*
X193705441Y-114332086D01*
X194017056Y-114225126D01*
X194244644Y-114134428D01*
X194343741Y-114077909D01*
X194344890Y-114074434D01*
X194261780Y-114027731D01*
X194033685Y-113935187D01*
X193692456Y-113808884D01*
X193269945Y-113660903D01*
X193123629Y-113611230D01*
X191362347Y-112922908D01*
X189639368Y-112063240D01*
X187969676Y-111045498D01*
X186368259Y-109882949D01*
X184850099Y-108588864D01*
X183430184Y-107176512D01*
X182123499Y-105659161D01*
X180945029Y-104050083D01*
X179909759Y-102362544D01*
X179459891Y-101512223D01*
X178659619Y-99717934D01*
X178003010Y-97818187D01*
X177492574Y-95828772D01*
X177130822Y-93765480D01*
X176920262Y-91644102D01*
X176863403Y-89480428D01*
X176962755Y-87290249D01*
X177052210Y-86361413D01*
X177098338Y-85927764D01*
X177118777Y-85635718D01*
X177110215Y-85442150D01*
X177069341Y-85303932D01*
X176992843Y-85177939D01*
X176957628Y-85129543D01*
X176562829Y-84498340D01*
X176182011Y-83700684D01*
X175819457Y-82755950D01*
X175479452Y-81683513D01*
X175166279Y-80502747D01*
X174884222Y-79233027D01*
X174637566Y-77893727D01*
X174430594Y-76504224D01*
X174267589Y-75083890D01*
X174152836Y-73652102D01*
X174090618Y-72228234D01*
X174088907Y-72155073D01*
X174080176Y-71012248D01*
X174111172Y-70034304D01*
X174147580Y-69625154D01*
X175326350Y-69625154D01*
X175328047Y-69968626D01*
X175380936Y-71151358D01*
X175516933Y-72461295D01*
X175728210Y-73863292D01*
X176006941Y-75322206D01*
X176345298Y-76802892D01*
X176735456Y-78270207D01*
X177169586Y-79689007D01*
X177639863Y-81024148D01*
X177979434Y-81873742D01*
X178687785Y-83367357D01*
X179505711Y-84742445D01*
X179964533Y-85401013D01*
X180388429Y-86002583D01*
X180696096Y-86489285D01*
X180883621Y-86854382D01*
X180947087Y-87091139D01*
X180947087Y-87091314D01*
X180873401Y-87307986D01*
X180668122Y-87425533D01*
X180354920Y-87447394D01*
X179957466Y-87377009D01*
X179499431Y-87217818D01*
X179004483Y-86973259D01*
X178656794Y-86758531D01*
X178364246Y-86569042D01*
X178136103Y-86433828D01*
X178011019Y-86375381D01*
X177999488Y-86376054D01*
X177955479Y-86508696D01*
X177913030Y-86799748D01*
X177873873Y-87221543D01*
X177839739Y-87746409D01*
X177812360Y-88346679D01*
X177793467Y-88994683D01*
X177784791Y-89662751D01*
X177784424Y-89813135D01*
X177792923Y-90790763D01*
X177822596Y-91641403D01*
X177878480Y-92423447D01*
X177965616Y-93195285D01*
X178089043Y-94015310D01*
X178203662Y-94670824D01*
X178293345Y-95141019D01*
X178379666Y-95520515D01*
X178479558Y-95857417D01*
X178609955Y-96199828D01*
X178787793Y-96595853D01*
X179030006Y-97093595D01*
X179120751Y-97275952D01*
X179953047Y-98809784D01*
X180882701Y-100260228D01*
X181934184Y-101661184D01*
X183131970Y-103046554D01*
X183779992Y-103730258D01*
X185470346Y-105342160D01*
X187233716Y-106782955D01*
X189069176Y-108052300D01*
X190975804Y-109149847D01*
X192952676Y-110075251D01*
X194998867Y-110828166D01*
X197113454Y-111408248D01*
X199295512Y-111815149D01*
X201544119Y-112048525D01*
X203858349Y-112108029D01*
X205928406Y-112017793D01*
X208192292Y-111770639D01*
X210351892Y-111373229D01*
X212417812Y-110821682D01*
X214400660Y-110112117D01*
X216311043Y-109240654D01*
X218159567Y-108203412D01*
X219956840Y-106996508D01*
X220256611Y-106775253D01*
X220906015Y-106257011D01*
X221631007Y-105622793D01*
X222397560Y-104906727D01*
X223171644Y-104142943D01*
X223919231Y-103365572D01*
X224606290Y-102608744D01*
X225198794Y-101906588D01*
X225507001Y-101509285D01*
X226229623Y-100486110D01*
X226920840Y-99411178D01*
X227539613Y-98350276D01*
X227882762Y-97700896D01*
X228160658Y-97041320D01*
X228418289Y-96212109D01*
X228651995Y-95228963D01*
X228858113Y-94107585D01*
X229032981Y-92863678D01*
X229055945Y-92670457D01*
X229107761Y-92066424D01*
X229142885Y-91321748D01*
X229161647Y-90481084D01*
X229164375Y-89589091D01*
X229151396Y-88690425D01*
X229123041Y-87829742D01*
X229079637Y-87051701D01*
X229021514Y-86400957D01*
X229009061Y-86297197D01*
X228989187Y-86179580D01*
X229866476Y-86179580D01*
X229920626Y-86843151D01*
X229954661Y-87270618D01*
X229994058Y-87780800D01*
X230030883Y-88270808D01*
X230034504Y-88319982D01*
X230094231Y-89133242D01*
X230432198Y-88865102D01*
X230665326Y-88662579D01*
X230962571Y-88380507D01*
X231262858Y-88077007D01*
X231286796Y-88051841D01*
X231581302Y-87725404D01*
X231865806Y-87383971D01*
X232080854Y-87099031D01*
X232088383Y-87088040D01*
X232252045Y-86830513D01*
X232434987Y-86517047D01*
X232611998Y-86194440D01*
X232757869Y-85909490D01*
X232847391Y-85708994D01*
X232863571Y-85649008D01*
X232778535Y-85624152D01*
X232555390Y-85606352D01*
X232242077Y-85599398D01*
X232235779Y-85599395D01*
X231762475Y-85630953D01*
X231252991Y-85734208D01*
X230737231Y-85889488D01*
X229866476Y-86179580D01*
X228989187Y-86179580D01*
X228660433Y-84233919D01*
X228146014Y-82251920D01*
X227466900Y-80353814D01*
X226624187Y-78542215D01*
X225618968Y-76819739D01*
X224452339Y-75188999D01*
X224251237Y-74937341D01*
X223719346Y-74321371D01*
X223074364Y-73638080D01*
X222356423Y-72925738D01*
X221605654Y-72222612D01*
X220862189Y-71566971D01*
X220166160Y-70997084D01*
X219929374Y-70816135D01*
X219505319Y-70508090D01*
X219038674Y-70183541D01*
X218554823Y-69858529D01*
X218079146Y-69549100D01*
X217637026Y-69271297D01*
X217253844Y-69041162D01*
X216954983Y-68874739D01*
X216765823Y-68788072D01*
X216712732Y-68782957D01*
X216716017Y-68885402D01*
X216758983Y-69127733D01*
X216833819Y-69469917D01*
X216900666Y-69746155D01*
X217180118Y-71197298D01*
X217317447Y-72731826D01*
X217312606Y-74312958D01*
X217165547Y-75903912D01*
X216910427Y-77318809D01*
X216813539Y-77740357D01*
X216724770Y-78108729D01*
X216655716Y-78376775D01*
X216624483Y-78481813D01*
X216632984Y-78510993D01*
X216720396Y-78405116D01*
X216857546Y-78202692D01*
X217269534Y-77647532D01*
X217743358Y-77147124D01*
X218231004Y-76748928D01*
X218488846Y-76590077D01*
X218712731Y-76479123D01*
X218917868Y-76407461D01*
X219154093Y-76366958D01*
X219471245Y-76349483D01*
X219919162Y-76346902D01*
X219977490Y-76347173D01*
X220491399Y-76357716D01*
X220875248Y-76388257D01*
X221184649Y-76446422D01*
X221475211Y-76539838D01*
X221526222Y-76559572D01*
X222395651Y-76996567D01*
X223230853Y-77599250D01*
X224017964Y-78348349D01*
X224743121Y-79224588D01*
X225392459Y-80208694D01*
X225952113Y-81281393D01*
X226408220Y-82423410D01*
X226746916Y-83615471D01*
X226808403Y-83902929D01*
X226979782Y-85031022D01*
X227056156Y-86196473D01*
X227040470Y-87363356D01*
X226935673Y-88495740D01*
X226744711Y-89557697D01*
X226470531Y-90513299D01*
X226215466Y-91131530D01*
X225760170Y-91877744D01*
X225189011Y-92486647D01*
X224520375Y-92949778D01*
X223772647Y-93258680D01*
X222964215Y-93404895D01*
X222113462Y-93379964D01*
X221562428Y-93272157D01*
X220935205Y-93059819D01*
X220353372Y-92750897D01*
X219770112Y-92317491D01*
X219392441Y-91978948D01*
X218612727Y-91126764D01*
X217904892Y-90121312D01*
X217280461Y-88985343D01*
X216750960Y-87741612D01*
X216327914Y-86412869D01*
X216113837Y-85506355D01*
X215981576Y-84694075D01*
X215896433Y-83810699D01*
X215858011Y-82897994D01*
X215861250Y-82529065D01*
X216640227Y-82529065D01*
X216651717Y-83433756D01*
X216692392Y-84208674D01*
X216769412Y-84908822D01*
X216889936Y-85589199D01*
X217061124Y-86304807D01*
X217194123Y-86784335D01*
X217527447Y-87748561D01*
X217966004Y-88723979D01*
X218484103Y-89665502D01*
X219056052Y-90528042D01*
X219656158Y-91266512D01*
X219881593Y-91500655D01*
X220583429Y-92096210D01*
X221297403Y-92508693D01*
X222033278Y-92741098D01*
X222800818Y-92796420D01*
X223609784Y-92677652D01*
X223670052Y-92662420D01*
X224062420Y-92490428D01*
X224480306Y-92191317D01*
X224873335Y-91807870D01*
X225191131Y-91382871D01*
X225206262Y-91357732D01*
X225525672Y-90687264D01*
X225785049Y-89865476D01*
X225979329Y-88918828D01*
X226103451Y-87873774D01*
X226152351Y-86756773D01*
X226151665Y-86417165D01*
X226138661Y-85366794D01*
X226057483Y-86390238D01*
X225916072Y-87522300D01*
X225683941Y-88520718D01*
X225364547Y-89378102D01*
X224961345Y-90087063D01*
X224477790Y-90640212D01*
X223917339Y-91030158D01*
X223878342Y-91049675D01*
X223586516Y-91181289D01*
X223343248Y-91250355D01*
X223072602Y-91269324D01*
X222698640Y-91250649D01*
X222667149Y-91248293D01*
X221957081Y-91130275D01*
X221301234Y-90878304D01*
X220664894Y-90475624D01*
X220141804Y-90029244D01*
X219347214Y-89160927D01*
X218642674Y-88149160D01*
X218041263Y-87019908D01*
X217556055Y-85799137D01*
X217269088Y-84762032D01*
X225993280Y-84762032D01*
X226007901Y-84894115D01*
X226040208Y-84878333D01*
X226052497Y-84687847D01*
X226040208Y-84645732D01*
X226006249Y-84634044D01*
X225993280Y-84762032D01*
X217269088Y-84762032D01*
X217200128Y-84512810D01*
X217096285Y-83982263D01*
X217012396Y-83316378D01*
X216967428Y-82558986D01*
X216961482Y-81774540D01*
X216994660Y-81027495D01*
X217067062Y-80382304D01*
X217090437Y-80248991D01*
X217167535Y-79958579D01*
X220114011Y-79958579D01*
X220174075Y-80474473D01*
X220342910Y-81001076D01*
X220624081Y-81512791D01*
X220851083Y-81805328D01*
X221263531Y-82169277D01*
X221734796Y-82412050D01*
X222222655Y-82520726D01*
X222684887Y-82482382D01*
X222859647Y-82420050D01*
X223156029Y-82188805D01*
X223369245Y-81827186D01*
X223491895Y-81374777D01*
X223516580Y-80871159D01*
X223435901Y-80355916D01*
X223310984Y-80005589D01*
X223004463Y-79485152D01*
X222608037Y-79040657D01*
X222156796Y-78699777D01*
X221685828Y-78490189D01*
X221320460Y-78435640D01*
X220890152Y-78514036D01*
X220550788Y-78731124D01*
X220305933Y-79061308D01*
X220159152Y-79478992D01*
X220114011Y-79958579D01*
X217167535Y-79958579D01*
X217308904Y-79426067D01*
X217625813Y-78689068D01*
X218025714Y-78062702D01*
X218493153Y-77571673D01*
X218523942Y-77551410D01*
X221884816Y-77551410D01*
X221931337Y-77597930D01*
X221977857Y-77551410D01*
X221931337Y-77504890D01*
X221884816Y-77551410D01*
X218523942Y-77551410D01*
X218954829Y-77267831D01*
X219255931Y-77131853D01*
X219501002Y-77063520D01*
X219771176Y-77049471D01*
X220128462Y-77074558D01*
X220555327Y-77133240D01*
X220994193Y-77223323D01*
X221282932Y-77304224D01*
X221543453Y-77383561D01*
X221707491Y-77416606D01*
X221739906Y-77403193D01*
X221601028Y-77306021D01*
X221325684Y-77199152D01*
X220962195Y-77094815D01*
X220558880Y-77005238D01*
X220164059Y-76942652D01*
X219827871Y-76919283D01*
X219427593Y-76936303D01*
X219126930Y-77000584D01*
X218841450Y-77131953D01*
X218785430Y-77164096D01*
X218201177Y-77608670D01*
X217696344Y-78212716D01*
X217268172Y-78980336D01*
X216913902Y-79915634D01*
X216896360Y-79972500D01*
X216805187Y-80282884D01*
X216738702Y-80552958D01*
X216693006Y-80821624D01*
X216664201Y-81127787D01*
X216648391Y-81510351D01*
X216641678Y-82008219D01*
X216640227Y-82529065D01*
X215861250Y-82529065D01*
X215865914Y-81997724D01*
X215919748Y-81151656D01*
X216019116Y-80401555D01*
X216163622Y-79789187D01*
X216168138Y-79774979D01*
X216156377Y-79759619D01*
X216073136Y-79881938D01*
X215935708Y-80116073D01*
X215912997Y-80156538D01*
X215188967Y-81282059D01*
X214359903Y-82254015D01*
X213426095Y-83072243D01*
X212387837Y-83736580D01*
X211245421Y-84246863D01*
X209999139Y-84602928D01*
X208649283Y-84804613D01*
X207492914Y-84854699D01*
X206441759Y-84806127D01*
X205526905Y-84653780D01*
X204724673Y-84388926D01*
X204011388Y-84002831D01*
X203363371Y-83486764D01*
X203115471Y-83240237D01*
X202483997Y-82459145D01*
X201994333Y-81607251D01*
X201651134Y-80708263D01*
X201459057Y-79785886D01*
X201422756Y-78863829D01*
X201546887Y-77965796D01*
X201836105Y-77115496D01*
X201890268Y-77001137D01*
X202022400Y-76716668D01*
X202106267Y-76505149D01*
X202123787Y-76413946D01*
X202025504Y-76379238D01*
X201778644Y-76307744D01*
X201415045Y-76208260D01*
X200966542Y-76089579D01*
X200694574Y-76019144D01*
X199962166Y-75821154D01*
X199387962Y-75640631D01*
X198946460Y-75465399D01*
X198612159Y-75283286D01*
X198359559Y-75082117D01*
X198163158Y-74849717D01*
X198124235Y-74792077D01*
X198026834Y-74593329D01*
X198066873Y-74502521D01*
X198248985Y-74519047D01*
X198577804Y-74642301D01*
X198732662Y-74712532D01*
X199072755Y-74845342D01*
X199545553Y-74993622D01*
X200100152Y-75142616D01*
X200672806Y-75274860D01*
X201711610Y-75501877D01*
X202585333Y-75710144D01*
X203313233Y-75906313D01*
X203914567Y-76097039D01*
X204408592Y-76288973D01*
X204814567Y-76488768D01*
X205151749Y-76703079D01*
X205409393Y-76911241D01*
X205749082Y-77286192D01*
X205992733Y-77696337D01*
X206123430Y-78100157D01*
X206124256Y-78456135D01*
X206086111Y-78572185D01*
X205941096Y-78759778D01*
X205771165Y-78778978D01*
X205597014Y-78641799D01*
X205439337Y-78360252D01*
X205369400Y-78156172D01*
X205179844Y-77800942D01*
X204831949Y-77455527D01*
X204353143Y-77140527D01*
X203770852Y-76876544D01*
X203575770Y-76808983D01*
X203260866Y-76721458D01*
X203066338Y-76708696D01*
X202952403Y-76759500D01*
X202764979Y-77002003D01*
X202591651Y-77380312D01*
X202445271Y-77844157D01*
X202338690Y-78343268D01*
X202284760Y-78827376D01*
X202296331Y-79246210D01*
X202303850Y-79296421D01*
X202429948Y-79615390D01*
X202697397Y-79996619D01*
X203081987Y-80417425D01*
X203559508Y-80855124D01*
X204105751Y-81287030D01*
X204696504Y-81690462D01*
X205137564Y-81951530D01*
X206045122Y-82348539D01*
X207020388Y-82582627D01*
X208041056Y-82653735D01*
X209084817Y-82561803D01*
X210129365Y-82306770D01*
X210989190Y-81967336D01*
X211886678Y-81458615D01*
X212768273Y-80790273D01*
X213611222Y-79988645D01*
X214027027Y-79505256D01*
X216209359Y-79505256D01*
X216255879Y-79551776D01*
X216302399Y-79505256D01*
X216255879Y-79458736D01*
X216209359Y-79505256D01*
X214027027Y-79505256D01*
X214267124Y-79226135D01*
X216302399Y-79226135D01*
X216348919Y-79272655D01*
X216395439Y-79226135D01*
X216348919Y-79179615D01*
X216302399Y-79226135D01*
X214267124Y-79226135D01*
X214392773Y-79080063D01*
X214617764Y-78760934D01*
X216488479Y-78760934D01*
X216535000Y-78807454D01*
X216581520Y-78760934D01*
X216535000Y-78714413D01*
X216488479Y-78760934D01*
X214617764Y-78760934D01*
X215090175Y-78090862D01*
X215680675Y-77047376D01*
X216123935Y-76024256D01*
X216227343Y-75736697D01*
X216303218Y-75495671D01*
X216355999Y-75264142D01*
X216390125Y-75005070D01*
X216410035Y-74681417D01*
X216420167Y-74256146D01*
X216424961Y-73692217D01*
X216425953Y-73504157D01*
X216415083Y-72523500D01*
X216366998Y-71674686D01*
X216274645Y-70905939D01*
X216130973Y-70165484D01*
X215928930Y-69401545D01*
X215817693Y-69038223D01*
X215281076Y-67641426D01*
X214584646Y-66312745D01*
X213743175Y-65067344D01*
X212771436Y-63920385D01*
X211684199Y-62887030D01*
X210496237Y-61982443D01*
X209222321Y-61221786D01*
X207877224Y-60620222D01*
X207478811Y-60478653D01*
X206443169Y-60193196D01*
X205337571Y-59998626D01*
X204208719Y-59897536D01*
X203103313Y-59892517D01*
X202068053Y-59986162D01*
X201311851Y-60136412D01*
X200167612Y-60516354D01*
X199063674Y-61043332D01*
X198020302Y-61698975D01*
X197057755Y-62464912D01*
X196196298Y-63322774D01*
X195456192Y-64254190D01*
X194857699Y-65240789D01*
X194421083Y-66264201D01*
X194366690Y-66433095D01*
X194203350Y-67068185D01*
X194115347Y-67694472D01*
X194098694Y-68369554D01*
X194149407Y-69151026D01*
X194166831Y-69320965D01*
X194216276Y-69825439D01*
X194237515Y-70174473D01*
X194230750Y-70396526D01*
X194196186Y-70520058D01*
X194175587Y-70547306D01*
X194037509Y-70597643D01*
X193906030Y-70483750D01*
X193786087Y-70227472D01*
X193682614Y-69850651D01*
X193600547Y-69375132D01*
X193544820Y-68822757D01*
X193520369Y-68215371D01*
X193527588Y-67679245D01*
X193571451Y-66540638D01*
X192934018Y-66770573D01*
X192455536Y-66952673D01*
X191986354Y-67148004D01*
X191555398Y-67342509D01*
X191191594Y-67522129D01*
X190923868Y-67672804D01*
X190781147Y-67780477D01*
X190770434Y-67822122D01*
X190892114Y-67893857D01*
X191138900Y-68012417D01*
X191463229Y-68155264D01*
X191553681Y-68193307D01*
X192060804Y-68428326D01*
X192485975Y-68671413D01*
X192813797Y-68907985D01*
X193028869Y-69123456D01*
X193115793Y-69303243D01*
X193059168Y-69432763D01*
X192919638Y-69486942D01*
X192769694Y-69468259D01*
X192488225Y-69393265D01*
X192116701Y-69274194D01*
X191731831Y-69136543D01*
X191098745Y-68913846D01*
X190435123Y-68711402D01*
X189718037Y-68524412D01*
X188924560Y-68348075D01*
X188031761Y-68177590D01*
X187016713Y-68008157D01*
X185856487Y-67834976D01*
X184854780Y-67696725D01*
X183327328Y-67502152D01*
X181921336Y-67344189D01*
X180646941Y-67223584D01*
X179514278Y-67141085D01*
X178533485Y-67097439D01*
X177714698Y-67093394D01*
X177111475Y-67125455D01*
X176576003Y-67204818D01*
X176183314Y-67344312D01*
X175893152Y-67570562D01*
X175665261Y-67910190D01*
X175550750Y-68157647D01*
X175455065Y-68402191D01*
X175390271Y-68626576D01*
X175350880Y-68875441D01*
X175331403Y-69193421D01*
X175326350Y-69625154D01*
X174147580Y-69625154D01*
X174185086Y-69203659D01*
X174305114Y-68502734D01*
X174474449Y-67913949D01*
X174696285Y-67419725D01*
X174973816Y-67002482D01*
X175039440Y-66923033D01*
X175299023Y-66672256D01*
X175613693Y-66480130D01*
X176017884Y-66333478D01*
X176546030Y-66219119D01*
X177079746Y-66142176D01*
X177719091Y-66092895D01*
X178514133Y-66080424D01*
X179438658Y-66102420D01*
X180466447Y-66156537D01*
X181571286Y-66240431D01*
X182726957Y-66351756D01*
X183907244Y-66488168D01*
X185085931Y-66647322D01*
X186236802Y-66826874D01*
X187333640Y-67024477D01*
X187652727Y-67087841D01*
X188152012Y-67185991D01*
X188604403Y-67268727D01*
X188970050Y-67329213D01*
X189209103Y-67360612D01*
X189259531Y-67363498D01*
X189448490Y-67322599D01*
X189751964Y-67212623D01*
X190120600Y-67052653D01*
X190349939Y-66941912D01*
X190910143Y-66667202D01*
X191410735Y-66439335D01*
X191914499Y-66232217D01*
X192484217Y-66019753D01*
X193025524Y-65829824D01*
X193892606Y-65530936D01*
X194197272Y-64830100D01*
X194768425Y-63739753D01*
X195497461Y-62711486D01*
X196360458Y-61767708D01*
X197333496Y-60930829D01*
X198392655Y-60223259D01*
X199514012Y-59667408D01*
X199601863Y-59633244D01*
X208208608Y-59633244D01*
X208288243Y-59692881D01*
X208497184Y-59798755D01*
X208791636Y-59928829D01*
X208817101Y-59939424D01*
X209445786Y-60235188D01*
X210135312Y-60618054D01*
X210813557Y-61044939D01*
X211408402Y-61472762D01*
X211482970Y-61531930D01*
X211748993Y-61740411D01*
X211952262Y-61888906D01*
X212056416Y-61951143D01*
X212062447Y-61950611D01*
X212120409Y-61866256D01*
X212261022Y-61659730D01*
X212462596Y-61362933D01*
X212681673Y-61039888D01*
X213173856Y-60366177D01*
X213723679Y-59704198D01*
X214311044Y-59071248D01*
X214915856Y-58484623D01*
X215518018Y-57961620D01*
X216097434Y-57519535D01*
X216634007Y-57175665D01*
X217107640Y-56947306D01*
X217498238Y-56851755D01*
X217549859Y-56849945D01*
X217821550Y-56878143D01*
X217915714Y-56959587D01*
X217831641Y-57089552D01*
X217608463Y-57240986D01*
X217386001Y-57382215D01*
X217251573Y-57494904D01*
X217233518Y-57527140D01*
X217272307Y-57641678D01*
X217374452Y-57870638D01*
X217510442Y-58149576D01*
X217917236Y-59031360D01*
X218320172Y-60047101D01*
X218700985Y-61145233D01*
X219041413Y-62274191D01*
X219241484Y-63037124D01*
X219491919Y-64140967D01*
X219673351Y-65149626D01*
X219795447Y-66136549D01*
X219867877Y-67175183D01*
X219894785Y-68000456D01*
X219931434Y-69800419D01*
X220745305Y-70432728D01*
X221078158Y-70683177D01*
X221358442Y-70878835D01*
X221553767Y-70998063D01*
X221628956Y-71023062D01*
X221653023Y-70920284D01*
X221673500Y-70664438D01*
X221688823Y-70288527D01*
X221697430Y-69825552D01*
X221698736Y-69549219D01*
X221673632Y-68537365D01*
X221595991Y-67482831D01*
X221462321Y-66362814D01*
X221269127Y-65154509D01*
X221012917Y-63835114D01*
X220690197Y-62381826D01*
X220443899Y-61357788D01*
X220275332Y-60692556D01*
X220097224Y-60020733D01*
X219921905Y-59386690D01*
X219761708Y-58834802D01*
X219628965Y-58409439D01*
X219603548Y-58333979D01*
X219256454Y-57409948D01*
X218892158Y-56600607D01*
X218519227Y-55920019D01*
X218146224Y-55382247D01*
X217781712Y-55001352D01*
X217449604Y-54797052D01*
X217108784Y-54750713D01*
X216637196Y-54812268D01*
X216050029Y-54974191D01*
X215362475Y-55228952D01*
X214589721Y-55569023D01*
X213746957Y-55986876D01*
X212849374Y-56474983D01*
X211912161Y-57025815D01*
X210950506Y-57631845D01*
X209979601Y-58285544D01*
X209021996Y-58973913D01*
X208692491Y-59223477D01*
X208427116Y-59433479D01*
X208256445Y-59579136D01*
X208208608Y-59633244D01*
X199601863Y-59633244D01*
X199845698Y-59538420D01*
X200464160Y-59325653D01*
X201019061Y-59168840D01*
X201559441Y-59060384D01*
X202134340Y-58992690D01*
X202792799Y-58958162D01*
X203583858Y-58949205D01*
X203648919Y-58949349D01*
X204331906Y-58956414D01*
X204876982Y-58975699D01*
X205332134Y-59011096D01*
X205745346Y-59066496D01*
X206164601Y-59145793D01*
X206222142Y-59158079D01*
X206623374Y-59242968D01*
X206957907Y-59310565D01*
X207183276Y-59352474D01*
X207253690Y-59362032D01*
X207358298Y-59307592D01*
X207573612Y-59160367D01*
X207865588Y-58944502D01*
X208120086Y-58747603D01*
X209077278Y-58023474D01*
X210067293Y-57330209D01*
X211071492Y-56677554D01*
X212071234Y-56075257D01*
X213047878Y-55533061D01*
X213982783Y-55060713D01*
X214857310Y-54667960D01*
X215652817Y-54364546D01*
X216350665Y-54160217D01*
X216932213Y-54064720D01*
X217088325Y-54058736D01*
X217488415Y-54084570D01*
G37*
D11*
G04 #@! TO.C,D1*
X200625000Y-87630000D02*
G75*
G02*
X195625000Y-87630000I-2500000J0D01*
G01*
X195625000Y-87630000D02*
G75*
G02*
X200625000Y-87630000I2500000J0D01*
G01*
X195135000Y-87629952D02*
G75*
G02*
X200685000Y-86085170I2990000J-48D01*
G01*
X200685000Y-89174830D02*
G75*
G02*
X195135000Y-87630048I-2560000J1544830D01*
G01*
X200685000Y-89175000D02*
X200685000Y-86085000D01*
G04 #@! TO.C,D5*
X216495000Y-97790000D02*
G75*
G02*
X211495000Y-97790000I-2500000J0D01*
G01*
X211495000Y-97790000D02*
G75*
G02*
X216495000Y-97790000I2500000J0D01*
G01*
X216985000Y-97790048D02*
G75*
G02*
X211435000Y-99334830I-2990000J48D01*
G01*
X211435000Y-96245170D02*
G75*
G02*
X216985000Y-97789952I2560000J-1544830D01*
G01*
X211435000Y-96245000D02*
X211435000Y-99335000D01*
G04 #@! TD*
%LPC*%
D13*
G04 #@! TO.C,D3*
X220345000Y-80645000D03*
D14*
X222885000Y-80645000D03*
G04 #@! TD*
D15*
G04 #@! TO.C,R3*
X223250000Y-86500000D03*
D16*
X223250000Y-94120000D03*
G04 #@! TD*
D17*
G04 #@! TO.C,SW1*
X189000000Y-93250000D03*
X189000000Y-86750000D03*
X184500000Y-93250000D03*
X184500000Y-86750000D03*
G04 #@! TD*
G04 #@! TO.C,SW5*
X194870000Y-107025000D03*
X201370000Y-107025000D03*
X194870000Y-102525000D03*
X201370000Y-102525000D03*
G04 #@! TD*
G04 #@! TO.C,SW3*
X219250000Y-87000000D03*
X212750000Y-87000000D03*
X219250000Y-91500000D03*
X212750000Y-91500000D03*
G04 #@! TD*
D14*
G04 #@! TO.C,D1*
X196855000Y-87630000D03*
D13*
X199395000Y-87630000D03*
G04 #@! TD*
D14*
G04 #@! TO.C,D5*
X215265000Y-97790000D03*
D13*
X212725000Y-97790000D03*
G04 #@! TD*
D16*
G04 #@! TO.C,R5*
X207645000Y-107950000D03*
D15*
X207645000Y-100330000D03*
G04 #@! TD*
D16*
G04 #@! TO.C,R1*
X192690000Y-93250000D03*
D15*
X200310000Y-93250000D03*
G04 #@! TD*
%LPD*%
M02*
