M48
; DRILL file {KiCad 8.99.0-3458-gcd40f6046b} date 2025-06-29T19:21:04+0530
; FORMAT={-:-/ absolute / metric / decimal}
; #@! TF.CreationDate,2025-06-29T19:21:04+05:30
; #@! TF.GenerationSoftware,Kicad,Pcbnew,8.99.0-3458-gcd40f6046b
; #@! TF.FileFunction,Plated,1,2,PTH
FMAT,2
METRIC
; #@! TA.AperFunction,Plated,PTH,ViaDrill
T1C0.300
; #@! TA.AperFunction,Plated,PTH,ComponentDrill
T2C0.800
; #@! TA.AperFunction,Plated,PTH,ComponentDrill
T3C0.900
; #@! TA.AperFunction,Plated,PTH,ComponentDrill
T4C1.100
; #@! TA.AperFunction,Plated,PTH,ViaDrill
T5C5.000
%
G90
G05
T1
X203.5Y-89.5
T2
X192.69Y-93.25
X200.31Y-93.25
X207.645Y-100.33
X207.645Y-107.95
X223.25Y-86.5
X223.25Y-94.12
T3
X196.855Y-87.63
X199.395Y-87.63
X212.725Y-97.79
X215.265Y-97.79
X220.345Y-80.645
X222.885Y-80.645
T4
X184.5Y-86.75
X184.5Y-93.25
X189.0Y-86.75
X189.0Y-93.25
X194.87Y-102.525
X194.87Y-107.025
X201.37Y-102.525
X201.37Y-107.025
X212.75Y-87.0
X212.75Y-91.5
X219.25Y-87.0
X219.25Y-91.5
T5
X201.295Y-63.5
M30
