G04 #@! TF.GenerationSoftware,KiCad,Pcbnew,8.99.0-3458-gcd40f6046b*
G04 #@! TF.CreationDate,2025-06-29T19:21:04+05:30*
G04 #@! TF.ProjectId,solder,736f6c64-6572-42e6-9b69-6361645f7063,rev?*
G04 #@! TF.SameCoordinates,Original*
G04 #@! TF.FileFunction,Legend,Bot*
G04 #@! TF.FilePolarity,Positive*
%FSLAX46Y46*%
G04 Gerber Fmt 4.6, Leading zero omitted, Abs format (unit mm)*
G04 Created by KiCad (PCBNEW 8.99.0-3458-gcd40f6046b) date 2025-06-29 19:21:04*
%MOMM*%
%LPD*%
G01*
G04 APERTURE LIST*
%ADD10C,0.150000*%
%ADD11C,0.120000*%
%ADD12R,1.800000X1.800000*%
%ADD13C,1.800000*%
%ADD14O,1.600000X1.600000*%
%ADD15C,1.600000*%
%ADD16C,2.000000*%
%ADD17C,17.800000*%
%ADD18R,1.270000X5.080000*%
G04 APERTURE END LIST*
D10*
X226074819Y-90143333D02*
X225598628Y-89810000D01*
X226074819Y-89571905D02*
X225074819Y-89571905D01*
X225074819Y-89571905D02*
X225074819Y-89952857D01*
X225074819Y-89952857D02*
X225122438Y-90048095D01*
X225122438Y-90048095D02*
X225170057Y-90095714D01*
X225170057Y-90095714D02*
X225265295Y-90143333D01*
X225265295Y-90143333D02*
X225408152Y-90143333D01*
X225408152Y-90143333D02*
X225503390Y-90095714D01*
X225503390Y-90095714D02*
X225551009Y-90048095D01*
X225551009Y-90048095D02*
X225598628Y-89952857D01*
X225598628Y-89952857D02*
X225598628Y-89571905D01*
X225074819Y-90476667D02*
X225074819Y-91095714D01*
X225074819Y-91095714D02*
X225455771Y-90762381D01*
X225455771Y-90762381D02*
X225455771Y-90905238D01*
X225455771Y-90905238D02*
X225503390Y-91000476D01*
X225503390Y-91000476D02*
X225551009Y-91048095D01*
X225551009Y-91048095D02*
X225646247Y-91095714D01*
X225646247Y-91095714D02*
X225884342Y-91095714D01*
X225884342Y-91095714D02*
X225979580Y-91048095D01*
X225979580Y-91048095D02*
X226027200Y-91000476D01*
X226027200Y-91000476D02*
X226074819Y-90905238D01*
X226074819Y-90905238D02*
X226074819Y-90619524D01*
X226074819Y-90619524D02*
X226027200Y-90524286D01*
X226027200Y-90524286D02*
X225979580Y-90476667D01*
X191407200Y-88666667D02*
X191454819Y-88809524D01*
X191454819Y-88809524D02*
X191454819Y-89047619D01*
X191454819Y-89047619D02*
X191407200Y-89142857D01*
X191407200Y-89142857D02*
X191359580Y-89190476D01*
X191359580Y-89190476D02*
X191264342Y-89238095D01*
X191264342Y-89238095D02*
X191169104Y-89238095D01*
X191169104Y-89238095D02*
X191073866Y-89190476D01*
X191073866Y-89190476D02*
X191026247Y-89142857D01*
X191026247Y-89142857D02*
X190978628Y-89047619D01*
X190978628Y-89047619D02*
X190931009Y-88857143D01*
X190931009Y-88857143D02*
X190883390Y-88761905D01*
X190883390Y-88761905D02*
X190835771Y-88714286D01*
X190835771Y-88714286D02*
X190740533Y-88666667D01*
X190740533Y-88666667D02*
X190645295Y-88666667D01*
X190645295Y-88666667D02*
X190550057Y-88714286D01*
X190550057Y-88714286D02*
X190502438Y-88761905D01*
X190502438Y-88761905D02*
X190454819Y-88857143D01*
X190454819Y-88857143D02*
X190454819Y-89095238D01*
X190454819Y-89095238D02*
X190502438Y-89238095D01*
X190454819Y-89571429D02*
X191454819Y-89809524D01*
X191454819Y-89809524D02*
X190740533Y-90000000D01*
X190740533Y-90000000D02*
X191454819Y-90190476D01*
X191454819Y-90190476D02*
X190454819Y-90428572D01*
X191454819Y-91333333D02*
X191454819Y-90761905D01*
X191454819Y-91047619D02*
X190454819Y-91047619D01*
X190454819Y-91047619D02*
X190597676Y-90952381D01*
X190597676Y-90952381D02*
X190692914Y-90857143D01*
X190692914Y-90857143D02*
X190740533Y-90761905D01*
X199453332Y-100932200D02*
X199310475Y-100979819D01*
X199310475Y-100979819D02*
X199072380Y-100979819D01*
X199072380Y-100979819D02*
X198977142Y-100932200D01*
X198977142Y-100932200D02*
X198929523Y-100884580D01*
X198929523Y-100884580D02*
X198881904Y-100789342D01*
X198881904Y-100789342D02*
X198881904Y-100694104D01*
X198881904Y-100694104D02*
X198929523Y-100598866D01*
X198929523Y-100598866D02*
X198977142Y-100551247D01*
X198977142Y-100551247D02*
X199072380Y-100503628D01*
X199072380Y-100503628D02*
X199262856Y-100456009D01*
X199262856Y-100456009D02*
X199358094Y-100408390D01*
X199358094Y-100408390D02*
X199405713Y-100360771D01*
X199405713Y-100360771D02*
X199453332Y-100265533D01*
X199453332Y-100265533D02*
X199453332Y-100170295D01*
X199453332Y-100170295D02*
X199405713Y-100075057D01*
X199405713Y-100075057D02*
X199358094Y-100027438D01*
X199358094Y-100027438D02*
X199262856Y-99979819D01*
X199262856Y-99979819D02*
X199024761Y-99979819D01*
X199024761Y-99979819D02*
X198881904Y-100027438D01*
X198548570Y-99979819D02*
X198310475Y-100979819D01*
X198310475Y-100979819D02*
X198119999Y-100265533D01*
X198119999Y-100265533D02*
X197929523Y-100979819D01*
X197929523Y-100979819D02*
X197691428Y-99979819D01*
X196834285Y-99979819D02*
X197310475Y-99979819D01*
X197310475Y-99979819D02*
X197358094Y-100456009D01*
X197358094Y-100456009D02*
X197310475Y-100408390D01*
X197310475Y-100408390D02*
X197215237Y-100360771D01*
X197215237Y-100360771D02*
X196977142Y-100360771D01*
X196977142Y-100360771D02*
X196881904Y-100408390D01*
X196881904Y-100408390D02*
X196834285Y-100456009D01*
X196834285Y-100456009D02*
X196786666Y-100551247D01*
X196786666Y-100551247D02*
X196786666Y-100789342D01*
X196786666Y-100789342D02*
X196834285Y-100884580D01*
X196834285Y-100884580D02*
X196881904Y-100932200D01*
X196881904Y-100932200D02*
X196977142Y-100979819D01*
X196977142Y-100979819D02*
X197215237Y-100979819D01*
X197215237Y-100979819D02*
X197310475Y-100932200D01*
X197310475Y-100932200D02*
X197358094Y-100884580D01*
X217333332Y-93907200D02*
X217190475Y-93954819D01*
X217190475Y-93954819D02*
X216952380Y-93954819D01*
X216952380Y-93954819D02*
X216857142Y-93907200D01*
X216857142Y-93907200D02*
X216809523Y-93859580D01*
X216809523Y-93859580D02*
X216761904Y-93764342D01*
X216761904Y-93764342D02*
X216761904Y-93669104D01*
X216761904Y-93669104D02*
X216809523Y-93573866D01*
X216809523Y-93573866D02*
X216857142Y-93526247D01*
X216857142Y-93526247D02*
X216952380Y-93478628D01*
X216952380Y-93478628D02*
X217142856Y-93431009D01*
X217142856Y-93431009D02*
X217238094Y-93383390D01*
X217238094Y-93383390D02*
X217285713Y-93335771D01*
X217285713Y-93335771D02*
X217333332Y-93240533D01*
X217333332Y-93240533D02*
X217333332Y-93145295D01*
X217333332Y-93145295D02*
X217285713Y-93050057D01*
X217285713Y-93050057D02*
X217238094Y-93002438D01*
X217238094Y-93002438D02*
X217142856Y-92954819D01*
X217142856Y-92954819D02*
X216904761Y-92954819D01*
X216904761Y-92954819D02*
X216761904Y-93002438D01*
X216428570Y-92954819D02*
X216190475Y-93954819D01*
X216190475Y-93954819D02*
X215999999Y-93240533D01*
X215999999Y-93240533D02*
X215809523Y-93954819D01*
X215809523Y-93954819D02*
X215571428Y-92954819D01*
X215285713Y-92954819D02*
X214666666Y-92954819D01*
X214666666Y-92954819D02*
X214999999Y-93335771D01*
X214999999Y-93335771D02*
X214857142Y-93335771D01*
X214857142Y-93335771D02*
X214761904Y-93383390D01*
X214761904Y-93383390D02*
X214714285Y-93431009D01*
X214714285Y-93431009D02*
X214666666Y-93526247D01*
X214666666Y-93526247D02*
X214666666Y-93764342D01*
X214666666Y-93764342D02*
X214714285Y-93859580D01*
X214714285Y-93859580D02*
X214761904Y-93907200D01*
X214761904Y-93907200D02*
X214857142Y-93954819D01*
X214857142Y-93954819D02*
X215142856Y-93954819D01*
X215142856Y-93954819D02*
X215238094Y-93907200D01*
X215238094Y-93907200D02*
X215285713Y-93859580D01*
X210469819Y-103973333D02*
X209993628Y-103640000D01*
X210469819Y-103401905D02*
X209469819Y-103401905D01*
X209469819Y-103401905D02*
X209469819Y-103782857D01*
X209469819Y-103782857D02*
X209517438Y-103878095D01*
X209517438Y-103878095D02*
X209565057Y-103925714D01*
X209565057Y-103925714D02*
X209660295Y-103973333D01*
X209660295Y-103973333D02*
X209803152Y-103973333D01*
X209803152Y-103973333D02*
X209898390Y-103925714D01*
X209898390Y-103925714D02*
X209946009Y-103878095D01*
X209946009Y-103878095D02*
X209993628Y-103782857D01*
X209993628Y-103782857D02*
X209993628Y-103401905D01*
X209469819Y-104878095D02*
X209469819Y-104401905D01*
X209469819Y-104401905D02*
X209946009Y-104354286D01*
X209946009Y-104354286D02*
X209898390Y-104401905D01*
X209898390Y-104401905D02*
X209850771Y-104497143D01*
X209850771Y-104497143D02*
X209850771Y-104735238D01*
X209850771Y-104735238D02*
X209898390Y-104830476D01*
X209898390Y-104830476D02*
X209946009Y-104878095D01*
X209946009Y-104878095D02*
X210041247Y-104925714D01*
X210041247Y-104925714D02*
X210279342Y-104925714D01*
X210279342Y-104925714D02*
X210374580Y-104878095D01*
X210374580Y-104878095D02*
X210422200Y-104830476D01*
X210422200Y-104830476D02*
X210469819Y-104735238D01*
X210469819Y-104735238D02*
X210469819Y-104497143D01*
X210469819Y-104497143D02*
X210422200Y-104401905D01*
X210422200Y-104401905D02*
X210374580Y-104354286D01*
X196666666Y-96074819D02*
X196999999Y-95598628D01*
X197238094Y-96074819D02*
X197238094Y-95074819D01*
X197238094Y-95074819D02*
X196857142Y-95074819D01*
X196857142Y-95074819D02*
X196761904Y-95122438D01*
X196761904Y-95122438D02*
X196714285Y-95170057D01*
X196714285Y-95170057D02*
X196666666Y-95265295D01*
X196666666Y-95265295D02*
X196666666Y-95408152D01*
X196666666Y-95408152D02*
X196714285Y-95503390D01*
X196714285Y-95503390D02*
X196761904Y-95551009D01*
X196761904Y-95551009D02*
X196857142Y-95598628D01*
X196857142Y-95598628D02*
X197238094Y-95598628D01*
X195714285Y-96074819D02*
X196285713Y-96074819D01*
X195999999Y-96074819D02*
X195999999Y-95074819D01*
X195999999Y-95074819D02*
X196095237Y-95217676D01*
X196095237Y-95217676D02*
X196190475Y-95312914D01*
X196190475Y-95312914D02*
X196285713Y-95360533D01*
X205890714Y-87631009D02*
X205747857Y-87678628D01*
X205747857Y-87678628D02*
X205700238Y-87726247D01*
X205700238Y-87726247D02*
X205652619Y-87821485D01*
X205652619Y-87821485D02*
X205652619Y-87964342D01*
X205652619Y-87964342D02*
X205700238Y-88059580D01*
X205700238Y-88059580D02*
X205747857Y-88107200D01*
X205747857Y-88107200D02*
X205843095Y-88154819D01*
X205843095Y-88154819D02*
X206224047Y-88154819D01*
X206224047Y-88154819D02*
X206224047Y-87154819D01*
X206224047Y-87154819D02*
X205890714Y-87154819D01*
X205890714Y-87154819D02*
X205795476Y-87202438D01*
X205795476Y-87202438D02*
X205747857Y-87250057D01*
X205747857Y-87250057D02*
X205700238Y-87345295D01*
X205700238Y-87345295D02*
X205700238Y-87440533D01*
X205700238Y-87440533D02*
X205747857Y-87535771D01*
X205747857Y-87535771D02*
X205795476Y-87583390D01*
X205795476Y-87583390D02*
X205890714Y-87631009D01*
X205890714Y-87631009D02*
X206224047Y-87631009D01*
X205366904Y-87154819D02*
X204795476Y-87154819D01*
X205081190Y-88154819D02*
X205081190Y-87154819D01*
X203938333Y-88154819D02*
X204509761Y-88154819D01*
X204224047Y-88154819D02*
X204224047Y-87154819D01*
X204224047Y-87154819D02*
X204319285Y-87297676D01*
X204319285Y-87297676D02*
X204414523Y-87392914D01*
X204414523Y-87392914D02*
X204509761Y-87440533D01*
D11*
G04 #@! TO.C,R3*
X221880000Y-87040000D02*
X222210000Y-87040000D01*
X224620000Y-87040000D02*
X224290000Y-87040000D01*
X221880000Y-93580000D02*
X221880000Y-87040000D01*
X222210000Y-93580000D02*
X221880000Y-93580000D01*
X224290000Y-93580000D02*
X224620000Y-93580000D01*
X224620000Y-93580000D02*
X224620000Y-87040000D01*
G04 #@! TO.C,SW1*
X187500000Y-93500000D02*
X186000000Y-93500000D01*
X183500000Y-92250000D02*
X183500000Y-87750000D01*
X190000000Y-87750000D02*
X190000000Y-92250000D01*
X186000000Y-86500000D02*
X187500000Y-86500000D01*
G04 #@! TO.C,SW5*
X194620000Y-105525000D02*
X194620000Y-104025000D01*
X195870000Y-101525000D02*
X200370000Y-101525000D01*
X200370000Y-108025000D02*
X195870000Y-108025000D01*
X201620000Y-104025000D02*
X201620000Y-105525000D01*
G04 #@! TO.C,SW3*
X219500000Y-88500000D02*
X219500000Y-90000000D01*
X218250000Y-92500000D02*
X213750000Y-92500000D01*
X213750000Y-86000000D02*
X218250000Y-86000000D01*
X212500000Y-90000000D02*
X212500000Y-88500000D01*
G04 #@! TO.C,R5*
X209015000Y-107410000D02*
X209015000Y-100870000D01*
X208685000Y-107410000D02*
X209015000Y-107410000D01*
X206605000Y-107410000D02*
X206275000Y-107410000D01*
X206275000Y-107410000D02*
X206275000Y-100870000D01*
X209015000Y-100870000D02*
X208685000Y-100870000D01*
X206275000Y-100870000D02*
X206605000Y-100870000D01*
G04 #@! TO.C,R1*
X193230000Y-94620000D02*
X199770000Y-94620000D01*
X193230000Y-94290000D02*
X193230000Y-94620000D01*
X193230000Y-92210000D02*
X193230000Y-91880000D01*
X193230000Y-91880000D02*
X199770000Y-91880000D01*
X199770000Y-94620000D02*
X199770000Y-94290000D01*
X199770000Y-91880000D02*
X199770000Y-92210000D01*
G04 #@! TO.C,BT1*
X211105000Y-67650000D02*
G75*
G02*
X214430243Y-68611831I1310000J-1700000D01*
G01*
X195765000Y-68620000D02*
G75*
G02*
X199101646Y-67633470I2030000J-730001D01*
G01*
X215885000Y-72570000D02*
X214445000Y-68620000D01*
X215885000Y-73200000D02*
X215885000Y-72570000D01*
X215885000Y-81660000D02*
X215885000Y-79200000D01*
X213805000Y-83740000D02*
X215885000Y-81660000D01*
X213805000Y-83740000D02*
X210305000Y-83740000D01*
X199905000Y-83740000D02*
X196405000Y-83740000D01*
X196405000Y-83740000D02*
X194325000Y-81660000D01*
X194325000Y-72570000D02*
X195765000Y-68620000D01*
X194325000Y-73200000D02*
X194325000Y-72570000D01*
X194325000Y-81660000D02*
X194325000Y-79200000D01*
G04 #@! TD*
%LPC*%
D12*
G04 #@! TO.C,D3*
X220345000Y-80645000D03*
D13*
X222885000Y-80645000D03*
G04 #@! TD*
D14*
G04 #@! TO.C,R3*
X223250000Y-86500000D03*
D15*
X223250000Y-94120000D03*
G04 #@! TD*
D16*
G04 #@! TO.C,SW1*
X189000000Y-93250000D03*
X189000000Y-86750000D03*
X184500000Y-93250000D03*
X184500000Y-86750000D03*
G04 #@! TD*
G04 #@! TO.C,SW5*
X194870000Y-107025000D03*
X201370000Y-107025000D03*
X194870000Y-102525000D03*
X201370000Y-102525000D03*
G04 #@! TD*
G04 #@! TO.C,SW3*
X219250000Y-87000000D03*
X212750000Y-87000000D03*
X219250000Y-91500000D03*
X212750000Y-91500000D03*
G04 #@! TD*
D13*
G04 #@! TO.C,D1*
X196855000Y-87630000D03*
D12*
X199395000Y-87630000D03*
G04 #@! TD*
D13*
G04 #@! TO.C,D5*
X215265000Y-97790000D03*
D12*
X212725000Y-97790000D03*
G04 #@! TD*
D15*
G04 #@! TO.C,R5*
X207645000Y-107950000D03*
D14*
X207645000Y-100330000D03*
G04 #@! TD*
D15*
G04 #@! TO.C,R1*
X192690000Y-93250000D03*
D14*
X200310000Y-93250000D03*
G04 #@! TD*
D17*
G04 #@! TO.C,BT1*
X205105000Y-76200000D03*
D18*
X216090000Y-76200000D03*
X194120000Y-76200000D03*
G04 #@! TD*
%LPD*%
M02*
