%TF.GenerationSoftware,KiCad,Pcbnew,8.99.0-3458-gcd40f6046b*%
%TF.CreationDate,2025-06-29T19:21:04+05:30*%
%TF.ProjectId,solder,736f6c64-6572-42e6-9b69-6361645f7063,rev?*%
%TF.SameCoordinates,Original*%
%TF.FileFunction,Drillmap*%
%TF.FilePolarity,Positive*%
%FSLAX45Y45*%
G04 Gerber Fmt 4.5, Leading zero omitted, Abs format (unit mm)*
G04 Created by KiCad (PCBNEW 8.99.0-3458-gcd40f6046b) date 2025-06-29 19:21:04*
%MOMM*%
%LPD*%
G01*
G04 APERTURE LIST*
%ADD10C,0.000000*%
%ADD11C,0.200000*%
G04 APERTURE END LIST*
D10*
X21716013Y-5416979D02*
X21722893Y-5417251D01*
X21729686Y-5417791D01*
X21736391Y-5418604D01*
X21743009Y-5419694D01*
X21749541Y-5421066D01*
X21755987Y-5422723D01*
X21762347Y-5424670D01*
X21768621Y-5426911D01*
X21774811Y-5429451D01*
X21780916Y-5432292D01*
X21786937Y-5435440D01*
X21792875Y-5438899D01*
X21798729Y-5442673D01*
X21804500Y-5446766D01*
X21810378Y-5451246D01*
X21816106Y-5455862D01*
X21821688Y-5460610D01*
X21827130Y-5465485D01*
X21832438Y-5470482D01*
X21837616Y-5475596D01*
X21842671Y-5480823D01*
X21847607Y-5486157D01*
X21852431Y-5491595D01*
X21857147Y-5497131D01*
X21861761Y-5502761D01*
X21866278Y-5508479D01*
X21875045Y-5520164D01*
X21883491Y-5532147D01*
X21891802Y-5544532D01*
X21899830Y-5557063D01*
X21915091Y-5582531D01*
X21929378Y-5608496D01*
X21942793Y-5634903D01*
X21955439Y-5661696D01*
X21967421Y-5688820D01*
X21978840Y-5716220D01*
X21989801Y-5743840D01*
X22008385Y-5793415D01*
X22025803Y-5843353D01*
X22042167Y-5893619D01*
X22057587Y-5944177D01*
X22072173Y-5994992D01*
X22086037Y-6046026D01*
X22112038Y-6148613D01*
X22134269Y-6243175D01*
X22154937Y-6338092D01*
X22173973Y-6433375D01*
X22191307Y-6529031D01*
X22207009Y-6625912D01*
X22213999Y-6674465D01*
X22220246Y-6723106D01*
X22225625Y-6771842D01*
X22230010Y-6820682D01*
X22233275Y-6869634D01*
X22235294Y-6918709D01*
X22235996Y-6949856D01*
X22236238Y-6980984D01*
X22235828Y-7012075D01*
X22234576Y-7043111D01*
X22232292Y-7074073D01*
X22230702Y-7089521D01*
X22228783Y-7104943D01*
X22226510Y-7120338D01*
X22223859Y-7135702D01*
X22220807Y-7151035D01*
X22217329Y-7166332D01*
X22217102Y-7167357D01*
X22216921Y-7168348D01*
X22216786Y-7169307D01*
X22216695Y-7170235D01*
X22216647Y-7171134D01*
X22216642Y-7172004D01*
X22216676Y-7172847D01*
X22216751Y-7173664D01*
X22216863Y-7174457D01*
X22217011Y-7175226D01*
X22217196Y-7175973D01*
X22217414Y-7176700D01*
X22217665Y-7177407D01*
X22217948Y-7178096D01*
X22218261Y-7178768D01*
X22218603Y-7179424D01*
X22218972Y-7180066D01*
X22219368Y-7180695D01*
X22219789Y-7181312D01*
X22220234Y-7181919D01*
X22221190Y-7183105D01*
X22222226Y-7184264D01*
X22223331Y-7185407D01*
X22224495Y-7186543D01*
X22226960Y-7188835D01*
X22255717Y-7215289D01*
X22284056Y-7242149D01*
X22311971Y-7269421D01*
X22339451Y-7297113D01*
X22366488Y-7325229D01*
X22393074Y-7353778D01*
X22419200Y-7382765D01*
X22444857Y-7412196D01*
X22479957Y-7454101D01*
X22513927Y-7496646D01*
X22546762Y-7539833D01*
X22578458Y-7583666D01*
X22609010Y-7628146D01*
X22638415Y-7673276D01*
X22666668Y-7719057D01*
X22693766Y-7765493D01*
X22719703Y-7812585D01*
X22744476Y-7860336D01*
X22768081Y-7908749D01*
X22790513Y-7957825D01*
X22811767Y-8007566D01*
X22831841Y-8057976D01*
X22850730Y-8109056D01*
X22868429Y-8160809D01*
X22881769Y-8202823D01*
X22894289Y-8245038D01*
X22905992Y-8287452D01*
X22916884Y-8330066D01*
X22926968Y-8372879D01*
X22936250Y-8415892D01*
X22944732Y-8459105D01*
X22952421Y-8502518D01*
X22953082Y-8506268D01*
X22953441Y-8508144D01*
X22953821Y-8510019D01*
X22954223Y-8511894D01*
X22954648Y-8513769D01*
X22955096Y-8515645D01*
X22955570Y-8517520D01*
X22955698Y-8517733D01*
X22955841Y-8517954D01*
X22956164Y-8518424D01*
X22956924Y-8519476D01*
X22957341Y-8520060D01*
X22957770Y-8520684D01*
X22958202Y-8521350D01*
X22958415Y-8521698D01*
X22958625Y-8522057D01*
X23014859Y-8510019D01*
X23042907Y-8504060D01*
X23070954Y-8498258D01*
X23089759Y-8494582D01*
X23108604Y-8491164D01*
X23127491Y-8488060D01*
X23146427Y-8485328D01*
X23165414Y-8483026D01*
X23184458Y-8481212D01*
X23203563Y-8479942D01*
X23222732Y-8479274D01*
X23229859Y-8479256D01*
X23236999Y-8479461D01*
X23244148Y-8479859D01*
X23251301Y-8480420D01*
X23258454Y-8481116D01*
X23265602Y-8481918D01*
X23279870Y-8483719D01*
X23282682Y-8484145D01*
X23285426Y-8484659D01*
X23288101Y-8485260D01*
X23290708Y-8485945D01*
X23293248Y-8486715D01*
X23295722Y-8487566D01*
X23298130Y-8488500D01*
X23300474Y-8489513D01*
X23302753Y-8490604D01*
X23304969Y-8491774D01*
X23307123Y-8493019D01*
X23309215Y-8494339D01*
X23311246Y-8495733D01*
X23313217Y-8497198D01*
X23316980Y-8500342D01*
X23320511Y-8503758D01*
X23323816Y-8507438D01*
X23326901Y-8511371D01*
X23329771Y-8515546D01*
X23332433Y-8519954D01*
X23334893Y-8524583D01*
X23337156Y-8529424D01*
X23339229Y-8534466D01*
X23341356Y-8540316D01*
X23343232Y-8546197D01*
X23344866Y-8552107D01*
X23346271Y-8558044D01*
X23347455Y-8564007D01*
X23348430Y-8569993D01*
X23349207Y-8576002D01*
X23349797Y-8582030D01*
X23350209Y-8588077D01*
X23350456Y-8594141D01*
X23350547Y-8600219D01*
X23350493Y-8606311D01*
X23349994Y-8618527D01*
X23349044Y-8630775D01*
X23347201Y-8647816D01*
X23344916Y-8664741D01*
X23342211Y-8681553D01*
X23339108Y-8698258D01*
X23335631Y-8714864D01*
X23331801Y-8731375D01*
X23323173Y-8764136D01*
X23313404Y-8796590D01*
X23302672Y-8828781D01*
X23291156Y-8860758D01*
X23279036Y-8892567D01*
X23267342Y-8921711D01*
X23255118Y-8950564D01*
X23242376Y-8979133D01*
X23229131Y-9007423D01*
X23201178Y-9063195D01*
X23171360Y-9117931D01*
X23139781Y-9171681D01*
X23106540Y-9224496D01*
X23071742Y-9276428D01*
X23035487Y-9327528D01*
X23017820Y-9351388D01*
X22999857Y-9375057D01*
X22981652Y-9398553D01*
X22963256Y-9421892D01*
X22961821Y-9423758D01*
X22960466Y-9425640D01*
X22959191Y-9427541D01*
X22957993Y-9429461D01*
X22956870Y-9431402D01*
X22955821Y-9433366D01*
X22954844Y-9435355D01*
X22953937Y-9437368D01*
X22953099Y-9439409D01*
X22952326Y-9441479D01*
X22951619Y-9443579D01*
X22950975Y-9445710D01*
X22950392Y-9447874D01*
X22949869Y-9450073D01*
X22949404Y-9452308D01*
X22948994Y-9454581D01*
X22940560Y-9502730D01*
X22931164Y-9550636D01*
X22920806Y-9598302D01*
X22909487Y-9645728D01*
X22897209Y-9692915D01*
X22883973Y-9739864D01*
X22869780Y-9786577D01*
X22854630Y-9833055D01*
X22834866Y-9889392D01*
X22813774Y-9944954D01*
X22791356Y-9999740D01*
X22767616Y-10053753D01*
X22742555Y-10106994D01*
X22716177Y-10159463D01*
X22688484Y-10211161D01*
X22659479Y-10262090D01*
X22629164Y-10312250D01*
X22597541Y-10361644D01*
X22564614Y-10410271D01*
X22530385Y-10458133D01*
X22494856Y-10505231D01*
X22458030Y-10551566D01*
X22419910Y-10597139D01*
X22380498Y-10641952D01*
X22348502Y-10676818D01*
X22315957Y-10711025D01*
X22282863Y-10744570D01*
X22249218Y-10777452D01*
X22215022Y-10809669D01*
X22180273Y-10841218D01*
X22144969Y-10872099D01*
X22109110Y-10902308D01*
X22072694Y-10931845D01*
X22035720Y-10960707D01*
X21998187Y-10988893D01*
X21960094Y-11016400D01*
X21921439Y-11043226D01*
X21882221Y-11069370D01*
X21842439Y-11094830D01*
X21802092Y-11119604D01*
X21800085Y-11120839D01*
X21798071Y-11122120D01*
X21793885Y-11124871D01*
X21789265Y-11127952D01*
X21783942Y-11131457D01*
X21786673Y-11132338D01*
X21789194Y-11133175D01*
X21793734Y-11134710D01*
X21795819Y-11135407D01*
X21797824Y-11136054D01*
X21799780Y-11136652D01*
X21801722Y-11137199D01*
X21872653Y-11156749D01*
X21942571Y-11178739D01*
X22011463Y-11203189D01*
X22079314Y-11230116D01*
X22146111Y-11259538D01*
X22211838Y-11291476D01*
X22276482Y-11325946D01*
X22340030Y-11362968D01*
X22358463Y-11374462D01*
X22376567Y-11386339D01*
X22394335Y-11398604D01*
X22411762Y-11411261D01*
X22428840Y-11424312D01*
X22445565Y-11437762D01*
X22461930Y-11451615D01*
X22477929Y-11465874D01*
X22493555Y-11480543D01*
X22508803Y-11495627D01*
X22523667Y-11511128D01*
X22538140Y-11527051D01*
X22552217Y-11543399D01*
X22565891Y-11560176D01*
X22579156Y-11577387D01*
X22592006Y-11595034D01*
X22603838Y-11612348D01*
X22609489Y-11621134D01*
X22614939Y-11630013D01*
X22620174Y-11638992D01*
X22625177Y-11648076D01*
X22629930Y-11657271D01*
X22634418Y-11666582D01*
X22638624Y-11676016D01*
X22642531Y-11685579D01*
X22646122Y-11695276D01*
X22649382Y-11705113D01*
X22652294Y-11715096D01*
X22654841Y-11725230D01*
X22657006Y-11735523D01*
X22658773Y-11745979D01*
X22659688Y-11753056D01*
X22660359Y-11760182D01*
X22660805Y-11767342D01*
X22661042Y-11774524D01*
X22661088Y-11781714D01*
X22660961Y-11788901D01*
X22660677Y-11796070D01*
X22660254Y-11803208D01*
X22659923Y-11806626D01*
X22659387Y-11809969D01*
X22658655Y-11813240D01*
X22657740Y-11816440D01*
X22656649Y-11819572D01*
X22655394Y-11822636D01*
X22653984Y-11825635D01*
X22652429Y-11828570D01*
X22650740Y-11831443D01*
X22648927Y-11834257D01*
X22646999Y-11837012D01*
X22644966Y-11839710D01*
X22642839Y-11842354D01*
X22640628Y-11844944D01*
X22638342Y-11847483D01*
X22635992Y-11849973D01*
X22630466Y-11855433D01*
X22624794Y-11860598D01*
X22618975Y-11865472D01*
X22613010Y-11870055D01*
X22606901Y-11874352D01*
X22600648Y-11878364D01*
X22594251Y-11882094D01*
X22587711Y-11885545D01*
X22581029Y-11888719D01*
X22574206Y-11891619D01*
X22567241Y-11894247D01*
X22560137Y-11896607D01*
X22552893Y-11898700D01*
X22545510Y-11900529D01*
X22537990Y-11902097D01*
X22530331Y-11903406D01*
X22508137Y-11906323D01*
X22485936Y-11908375D01*
X22463731Y-11909614D01*
X22441524Y-11910097D01*
X22419316Y-11909875D01*
X22397111Y-11909005D01*
X22374911Y-11907541D01*
X22352717Y-11905535D01*
X22307682Y-11900455D01*
X22262899Y-11894398D01*
X22218363Y-11887389D01*
X22174069Y-11879450D01*
X22130012Y-11870606D01*
X22086189Y-11860881D01*
X21999223Y-11838883D01*
X21913134Y-11813647D01*
X21827885Y-11785364D01*
X21743439Y-11754225D01*
X21659759Y-11720420D01*
X21591198Y-11691002D01*
X21557097Y-11675810D01*
X21523192Y-11660169D01*
X21489538Y-11643986D01*
X21456192Y-11627166D01*
X21423212Y-11609614D01*
X21390652Y-11591237D01*
X21367976Y-11577753D01*
X21345630Y-11563774D01*
X21323695Y-11549214D01*
X21312906Y-11541688D01*
X21302250Y-11533985D01*
X21291735Y-11526092D01*
X21281373Y-11518000D01*
X21271172Y-11509698D01*
X21261143Y-11501174D01*
X21251296Y-11492418D01*
X21241641Y-11483418D01*
X21232188Y-11474165D01*
X21222945Y-11464647D01*
X21215401Y-11456389D01*
X21208061Y-11447874D01*
X21200845Y-11439117D01*
X21193671Y-11430129D01*
X21179125Y-11411516D01*
X21171590Y-11401916D01*
X21163772Y-11392138D01*
X21098679Y-11409252D01*
X21033027Y-11424904D01*
X20966857Y-11439109D01*
X20900208Y-11451880D01*
X20833121Y-11463231D01*
X20765636Y-11473177D01*
X20697792Y-11481732D01*
X20629631Y-11488910D01*
X20632100Y-11495822D01*
X20634611Y-11502554D01*
X20639539Y-11515626D01*
X20641848Y-11522039D01*
X20643982Y-11528419D01*
X20645885Y-11534804D01*
X20646733Y-11538010D01*
X20647503Y-11541231D01*
X20649995Y-11554052D01*
X20650909Y-11560350D01*
X20651606Y-11566575D01*
X20652084Y-11572726D01*
X20652347Y-11578804D01*
X20652394Y-11584808D01*
X20652228Y-11590739D01*
X20651849Y-11596598D01*
X20651258Y-11602384D01*
X20650458Y-11608098D01*
X20649449Y-11613740D01*
X20648232Y-11619310D01*
X20646809Y-11624809D01*
X20645180Y-11630237D01*
X20643348Y-11635594D01*
X20641313Y-11640881D01*
X20639077Y-11646097D01*
X20636640Y-11651244D01*
X20634004Y-11656320D01*
X20631171Y-11661328D01*
X20628142Y-11666266D01*
X20621498Y-11675935D01*
X20614083Y-11685331D01*
X20605907Y-11694456D01*
X20596979Y-11703312D01*
X20587311Y-11711900D01*
X20582659Y-11715736D01*
X20577941Y-11719465D01*
X20573160Y-11723091D01*
X20568317Y-11726616D01*
X20558451Y-11733371D01*
X20548359Y-11739751D01*
X20538054Y-11745775D01*
X20527551Y-11751463D01*
X20516863Y-11756833D01*
X20506004Y-11761906D01*
X20447662Y-11787194D01*
X20388767Y-11810783D01*
X20329335Y-11832711D01*
X20269377Y-11853018D01*
X20208908Y-11871739D01*
X20147939Y-11888915D01*
X20086483Y-11904581D01*
X20024555Y-11918778D01*
X19980462Y-11927958D01*
X19936250Y-11936397D01*
X19891923Y-11944092D01*
X19847484Y-11951039D01*
X19802937Y-11957235D01*
X19758285Y-11962677D01*
X19713530Y-11967361D01*
X19668677Y-11971284D01*
X19618069Y-11974906D01*
X19567392Y-11977755D01*
X19516679Y-11979892D01*
X19465967Y-11981378D01*
X19420517Y-11982028D01*
X19375041Y-11981923D01*
X19329583Y-11981105D01*
X19284185Y-11979619D01*
X19254766Y-11978146D01*
X19225416Y-11976036D01*
X19196153Y-11973205D01*
X19166994Y-11969571D01*
X19137957Y-11965052D01*
X19109059Y-11959564D01*
X19080317Y-11953026D01*
X19051748Y-11945355D01*
X19037534Y-11940987D01*
X19023511Y-11936197D01*
X19009691Y-11930954D01*
X18996082Y-11925225D01*
X18989360Y-11922169D01*
X18982694Y-11918980D01*
X18976086Y-11915654D01*
X18969538Y-11912187D01*
X18963049Y-11908575D01*
X18956622Y-11904814D01*
X18950258Y-11900901D01*
X18943957Y-11896831D01*
X18938502Y-11893039D01*
X18933352Y-11889119D01*
X18928503Y-11885074D01*
X18923951Y-11880911D01*
X18919694Y-11876637D01*
X18915727Y-11872256D01*
X18912046Y-11867776D01*
X18908649Y-11863201D01*
X18905532Y-11858538D01*
X18902690Y-11853793D01*
X18900122Y-11848972D01*
X18897822Y-11844080D01*
X18895788Y-11839124D01*
X18894015Y-11834109D01*
X18892501Y-11829042D01*
X18891242Y-11823928D01*
X18890234Y-11818774D01*
X18889474Y-11813584D01*
X18888958Y-11808366D01*
X18888682Y-11803125D01*
X18888644Y-11797867D01*
X18888838Y-11792598D01*
X18889914Y-11782051D01*
X18891881Y-11771531D01*
X18894710Y-11761085D01*
X18898372Y-11750762D01*
X18902841Y-11740608D01*
X18906731Y-11732892D01*
X18910856Y-11725368D01*
X18915207Y-11718024D01*
X18919770Y-11710853D01*
X18924536Y-11703844D01*
X18929491Y-11696989D01*
X18934626Y-11690278D01*
X18939929Y-11683702D01*
X18945388Y-11677252D01*
X18950992Y-11670919D01*
X18956729Y-11664693D01*
X18962588Y-11658566D01*
X18974627Y-11646569D01*
X18987018Y-11634854D01*
X18998717Y-11624252D01*
X19010611Y-11613936D01*
X19022694Y-11603899D01*
X19034961Y-11594129D01*
X19047405Y-11584620D01*
X19060019Y-11575362D01*
X19085734Y-11557564D01*
X19112057Y-11540664D01*
X19138938Y-11524592D01*
X19166327Y-11509278D01*
X19194174Y-11494651D01*
X19222317Y-11480746D01*
X19250756Y-11467554D01*
X19279476Y-11455041D01*
X19308459Y-11443175D01*
X19337689Y-11431920D01*
X19367151Y-11421243D01*
X19396827Y-11411112D01*
X19426703Y-11401491D01*
X19429094Y-11400743D01*
X19431472Y-11399931D01*
X19432655Y-11399490D01*
X19433832Y-11399020D01*
X19435005Y-11398515D01*
X19436171Y-11397972D01*
X19437331Y-11397385D01*
X19438484Y-11396751D01*
X19439630Y-11396063D01*
X19440767Y-11395319D01*
X19441895Y-11394512D01*
X19443015Y-11393639D01*
X19444124Y-11392695D01*
X19445223Y-11391675D01*
X19384012Y-11372136D01*
X19327897Y-11353394D01*
X19272481Y-11333388D01*
X19217766Y-11312118D01*
X19163753Y-11289582D01*
X19110444Y-11265779D01*
X19057839Y-11240710D01*
X19005939Y-11214372D01*
X18954746Y-11186765D01*
X18904260Y-11157889D01*
X18854483Y-11127742D01*
X18805415Y-11096324D01*
X18757059Y-11063634D01*
X18709414Y-11029670D01*
X18662483Y-10994433D01*
X18616265Y-10957922D01*
X18570762Y-10920135D01*
X18532348Y-10886817D01*
X18494656Y-10852875D01*
X18457691Y-10818304D01*
X18421461Y-10783098D01*
X18385974Y-10747252D01*
X18351236Y-10710760D01*
X18317255Y-10673616D01*
X18284037Y-10635817D01*
X18251589Y-10597355D01*
X18219919Y-10558226D01*
X18189034Y-10518424D01*
X18158940Y-10477944D01*
X18129645Y-10436780D01*
X18101156Y-10394927D01*
X18073479Y-10352380D01*
X18046623Y-10309133D01*
X18000189Y-10228968D01*
X17957201Y-10147394D01*
X17917631Y-10064421D01*
X17881452Y-9980064D01*
X17848637Y-9894335D01*
X17819160Y-9807247D01*
X17792992Y-9718814D01*
X17770107Y-9629048D01*
X17758838Y-9579006D01*
X17748526Y-9528821D01*
X17739196Y-9478488D01*
X17730877Y-9428004D01*
X17723596Y-9377363D01*
X17717379Y-9326562D01*
X17712254Y-9275596D01*
X17708247Y-9224460D01*
X17705455Y-9178605D01*
X17703131Y-9132724D01*
X17701189Y-9086826D01*
X17699542Y-9040918D01*
X17698556Y-8999737D01*
X17698333Y-8958567D01*
X17698813Y-8917410D01*
X17699936Y-8876268D01*
X17701641Y-8835144D01*
X17703866Y-8794039D01*
X17709636Y-8711896D01*
X17711322Y-8692353D01*
X17713223Y-8672826D01*
X17717496Y-8633807D01*
X17726676Y-8555858D01*
X17727003Y-8552478D01*
X17727115Y-8550829D01*
X17727180Y-8549203D01*
X17727192Y-8547601D01*
X17727143Y-8546018D01*
X17727023Y-8544453D01*
X17726826Y-8542905D01*
X17726543Y-8541371D01*
X17726166Y-8539848D01*
X17725688Y-8538336D01*
X17725100Y-8536832D01*
X17724394Y-8535334D01*
X17723562Y-8533840D01*
X17722597Y-8532347D01*
X17721490Y-8530855D01*
X17712687Y-8519352D01*
X17704223Y-8507664D01*
X17696082Y-8495801D01*
X17688249Y-8483770D01*
X17680708Y-8471580D01*
X17673445Y-8459239D01*
X17659688Y-8434141D01*
X17646856Y-8408544D01*
X17634825Y-8382516D01*
X17623474Y-8356125D01*
X17612680Y-8329440D01*
X17596861Y-8287479D01*
X17582255Y-8245168D01*
X17568753Y-8202540D01*
X17556249Y-8159628D01*
X17544635Y-8116464D01*
X17533803Y-8073080D01*
X17523646Y-8029511D01*
X17514056Y-7985787D01*
X17502470Y-7929492D01*
X17491707Y-7873061D01*
X17481712Y-7816504D01*
X17472431Y-7759832D01*
X17463810Y-7703056D01*
X17455794Y-7646187D01*
X17441362Y-7532211D01*
X17435382Y-7478888D01*
X17430067Y-7425524D01*
X17425504Y-7372115D01*
X17421776Y-7318655D01*
X17418969Y-7265138D01*
X17417166Y-7211559D01*
X17416453Y-7157914D01*
X17416915Y-7104195D01*
X17417910Y-7069437D01*
X17419600Y-7034766D01*
X17422124Y-7000202D01*
X17425619Y-6965763D01*
X17430227Y-6931467D01*
X17436084Y-6897333D01*
X17439525Y-6880332D01*
X17443330Y-6863379D01*
X17447517Y-6846475D01*
X17452104Y-6829624D01*
X17457035Y-6813306D01*
X17462486Y-6797219D01*
X17465422Y-6789270D01*
X17468508Y-6781387D01*
X17471748Y-6773573D01*
X17475151Y-6765831D01*
X17478722Y-6758164D01*
X17482467Y-6750575D01*
X17486394Y-6743066D01*
X17490507Y-6735641D01*
X17494815Y-6728301D01*
X17499322Y-6721052D01*
X17504036Y-6713894D01*
X17508963Y-6706831D01*
X17512497Y-6702092D01*
X17516153Y-6697531D01*
X17519932Y-6693146D01*
X17523835Y-6688935D01*
X17527863Y-6684898D01*
X17532016Y-6681033D01*
X17536296Y-6677340D01*
X17540703Y-6673817D01*
X17545238Y-6670464D01*
X17549902Y-6667278D01*
X17554696Y-6664260D01*
X17559620Y-6661408D01*
X17564676Y-6658721D01*
X17569864Y-6656198D01*
X17575184Y-6653837D01*
X17580639Y-6651638D01*
X17593999Y-6646814D01*
X17607472Y-6642524D01*
X17621052Y-6638731D01*
X17634731Y-6635398D01*
X17648501Y-6632485D01*
X17662355Y-6629956D01*
X17676284Y-6627772D01*
X17690282Y-6625894D01*
X17730134Y-6621597D01*
X17770020Y-6618566D01*
X17809932Y-6616696D01*
X17849862Y-6615882D01*
X17889801Y-6616018D01*
X17929739Y-6617000D01*
X17969669Y-6618722D01*
X18009581Y-6621079D01*
X18082155Y-6626149D01*
X18154704Y-6631844D01*
X18227200Y-6638269D01*
X18299617Y-6645527D01*
X18375299Y-6653945D01*
X18450847Y-6663198D01*
X18526233Y-6673452D01*
X18601426Y-6684872D01*
X18676398Y-6697624D01*
X18751119Y-6711876D01*
X18825560Y-6727792D01*
X18899692Y-6745539D01*
X18904509Y-6746670D01*
X18909207Y-6747597D01*
X18913801Y-6748314D01*
X18918303Y-6748821D01*
X18922726Y-6749112D01*
X18927082Y-6749185D01*
X18931384Y-6749037D01*
X18935646Y-6748664D01*
X18939879Y-6748064D01*
X18944097Y-6747232D01*
X18948312Y-6746166D01*
X18952538Y-6744862D01*
X18956785Y-6743317D01*
X18961069Y-6741528D01*
X18965401Y-6739492D01*
X18969794Y-6737205D01*
X19019033Y-6711324D01*
X19068877Y-6686860D01*
X19119308Y-6663781D01*
X19170305Y-6642054D01*
X19221849Y-6621647D01*
X19273920Y-6602526D01*
X19326500Y-6584661D01*
X19379567Y-6568017D01*
X19381447Y-6567437D01*
X19383264Y-6566834D01*
X19385017Y-6566198D01*
X19386705Y-6565518D01*
X19388326Y-6564782D01*
X19389879Y-6563978D01*
X19391363Y-6563096D01*
X19392775Y-6562125D01*
X19393454Y-6561602D01*
X19394114Y-6561053D01*
X19394756Y-6560475D01*
X19395380Y-6559868D01*
X19395984Y-6559230D01*
X19396569Y-6558560D01*
X19397135Y-6557856D01*
X19397681Y-6557117D01*
X19398208Y-6556342D01*
X19398715Y-6555528D01*
X19399202Y-6554676D01*
X19399669Y-6553782D01*
X19400115Y-6552847D01*
X19400541Y-6551868D01*
X19400945Y-6550844D01*
X19401329Y-6549774D01*
X19409311Y-6527509D01*
X19417898Y-6505609D01*
X19427078Y-6484068D01*
X19436837Y-6462878D01*
X19447163Y-6442031D01*
X19458042Y-6421521D01*
X19469462Y-6401338D01*
X19481409Y-6381477D01*
X19493870Y-6361930D01*
X19506833Y-6342689D01*
X19520284Y-6323746D01*
X19534210Y-6305095D01*
X19548599Y-6286727D01*
X19563437Y-6268636D01*
X19578711Y-6250814D01*
X19594409Y-6233253D01*
X19610017Y-6216466D01*
X19625903Y-6200036D01*
X19642073Y-6183971D01*
X19658530Y-6168275D01*
X19675280Y-6152955D01*
X19692326Y-6138018D01*
X19709675Y-6123469D01*
X19727331Y-6109314D01*
X19745297Y-6095559D01*
X19763581Y-6082211D01*
X19782185Y-6069276D01*
X19801114Y-6056759D01*
X19820374Y-6044668D01*
X19839970Y-6033007D01*
X19859905Y-6021783D01*
X19880185Y-6011003D01*
X19914108Y-5994331D01*
X19948501Y-5979101D01*
X19983359Y-5965294D01*
X20018675Y-5952894D01*
X20054442Y-5941883D01*
X20090654Y-5932243D01*
X20127305Y-5923958D01*
X20164387Y-5917010D01*
X20194039Y-5912419D01*
X20223747Y-5908641D01*
X20253507Y-5905661D01*
X20283314Y-5903466D01*
X20313165Y-5902045D01*
X20343056Y-5901383D01*
X20372980Y-5901467D01*
X20402936Y-5902286D01*
X20441516Y-5904290D01*
X20479948Y-5907282D01*
X20518224Y-5911308D01*
X20556335Y-5916419D01*
X20594272Y-5922663D01*
X20632027Y-5930088D01*
X20669591Y-5938745D01*
X20706955Y-5948680D01*
X20709587Y-5949362D01*
X20712108Y-5949880D01*
X20714528Y-5950237D01*
X20716857Y-5950434D01*
X20719104Y-5950472D01*
X20721282Y-5950354D01*
X20723398Y-5950080D01*
X20725465Y-5949653D01*
X20727491Y-5949073D01*
X20729487Y-5948344D01*
X20731463Y-5947466D01*
X20733430Y-5946440D01*
X20735397Y-5945270D01*
X20737375Y-5943955D01*
X20739374Y-5942499D01*
X20741404Y-5940902D01*
X20809219Y-5887017D01*
X20878093Y-5834725D01*
X20948070Y-5784092D01*
X21019193Y-5735181D01*
X21091506Y-5688060D01*
X21165051Y-5642791D01*
X21239872Y-5599442D01*
X21316013Y-5558076D01*
X21347478Y-5541745D01*
X21379115Y-5525805D01*
X21410968Y-5510354D01*
X21443077Y-5495487D01*
X21475486Y-5481302D01*
X21508237Y-5467896D01*
X21541372Y-5455363D01*
X21574934Y-5443803D01*
X21590455Y-5438877D01*
X21606050Y-5434285D01*
X21621735Y-5430087D01*
X21637523Y-5426347D01*
X21653428Y-5423128D01*
X21669464Y-5420492D01*
X21677536Y-5419413D01*
X21685646Y-5418504D01*
X21693796Y-5417772D01*
X21701987Y-5417225D01*
X21709044Y-5416972D01*
X21716013Y-5416979D01*
D11*
X17677230Y-12293512D02*
X17677230Y-12093512D01*
X17677230Y-12093512D02*
X17724849Y-12093512D01*
X17724849Y-12093512D02*
X17753421Y-12103036D01*
X17753421Y-12103036D02*
X17772468Y-12122083D01*
X17772468Y-12122083D02*
X17781992Y-12141131D01*
X17781992Y-12141131D02*
X17791516Y-12179226D01*
X17791516Y-12179226D02*
X17791516Y-12207798D01*
X17791516Y-12207798D02*
X17781992Y-12245893D01*
X17781992Y-12245893D02*
X17772468Y-12264940D01*
X17772468Y-12264940D02*
X17753421Y-12283988D01*
X17753421Y-12283988D02*
X17724849Y-12293512D01*
X17724849Y-12293512D02*
X17677230Y-12293512D01*
X17877230Y-12293512D02*
X17877230Y-12160179D01*
X17877230Y-12198274D02*
X17886754Y-12179226D01*
X17886754Y-12179226D02*
X17896278Y-12169702D01*
X17896278Y-12169702D02*
X17915325Y-12160179D01*
X17915325Y-12160179D02*
X17934373Y-12160179D01*
X18001040Y-12293512D02*
X18001040Y-12160179D01*
X18001040Y-12093512D02*
X17991516Y-12103036D01*
X17991516Y-12103036D02*
X18001040Y-12112560D01*
X18001040Y-12112560D02*
X18010564Y-12103036D01*
X18010564Y-12103036D02*
X18001040Y-12093512D01*
X18001040Y-12093512D02*
X18001040Y-12112560D01*
X18124849Y-12293512D02*
X18105802Y-12283988D01*
X18105802Y-12283988D02*
X18096278Y-12264940D01*
X18096278Y-12264940D02*
X18096278Y-12093512D01*
X18229611Y-12293512D02*
X18210564Y-12283988D01*
X18210564Y-12283988D02*
X18201040Y-12264940D01*
X18201040Y-12264940D02*
X18201040Y-12093512D01*
X18458183Y-12293512D02*
X18458183Y-12093512D01*
X18458183Y-12093512D02*
X18524849Y-12236369D01*
X18524849Y-12236369D02*
X18591516Y-12093512D01*
X18591516Y-12093512D02*
X18591516Y-12293512D01*
X18772468Y-12293512D02*
X18772468Y-12188750D01*
X18772468Y-12188750D02*
X18762945Y-12169702D01*
X18762945Y-12169702D02*
X18743897Y-12160179D01*
X18743897Y-12160179D02*
X18705802Y-12160179D01*
X18705802Y-12160179D02*
X18686754Y-12169702D01*
X18772468Y-12283988D02*
X18753421Y-12293512D01*
X18753421Y-12293512D02*
X18705802Y-12293512D01*
X18705802Y-12293512D02*
X18686754Y-12283988D01*
X18686754Y-12283988D02*
X18677230Y-12264940D01*
X18677230Y-12264940D02*
X18677230Y-12245893D01*
X18677230Y-12245893D02*
X18686754Y-12226845D01*
X18686754Y-12226845D02*
X18705802Y-12217321D01*
X18705802Y-12217321D02*
X18753421Y-12217321D01*
X18753421Y-12217321D02*
X18772468Y-12207798D01*
X18867706Y-12160179D02*
X18867706Y-12360179D01*
X18867706Y-12169702D02*
X18886754Y-12160179D01*
X18886754Y-12160179D02*
X18924849Y-12160179D01*
X18924849Y-12160179D02*
X18943897Y-12169702D01*
X18943897Y-12169702D02*
X18953421Y-12179226D01*
X18953421Y-12179226D02*
X18962945Y-12198274D01*
X18962945Y-12198274D02*
X18962945Y-12255417D01*
X18962945Y-12255417D02*
X18953421Y-12274464D01*
X18953421Y-12274464D02*
X18943897Y-12283988D01*
X18943897Y-12283988D02*
X18924849Y-12293512D01*
X18924849Y-12293512D02*
X18886754Y-12293512D01*
X18886754Y-12293512D02*
X18867706Y-12283988D01*
X19048659Y-12274464D02*
X19058183Y-12283988D01*
X19058183Y-12283988D02*
X19048659Y-12293512D01*
X19048659Y-12293512D02*
X19039135Y-12283988D01*
X19039135Y-12283988D02*
X19048659Y-12274464D01*
X19048659Y-12274464D02*
X19048659Y-12293512D01*
X19048659Y-12169702D02*
X19058183Y-12179226D01*
X19058183Y-12179226D02*
X19048659Y-12188750D01*
X19048659Y-12188750D02*
X19039135Y-12179226D01*
X19039135Y-12179226D02*
X19048659Y-12169702D01*
X19048659Y-12169702D02*
X19048659Y-12188750D01*
M02*
